ffmpeg started on 2025-03-25 at 15:17:16
Report written to "D:\Convert\FFMetrics\reports\vmaf_report-6.txt"
Log level: 32
Command line:
ffmpeg -hide_banner -nostdin -r 24000/1001 -i "G:\\\xc0\xed\xe8\xec\xe5\\\xce\xed\xe3\xee\xe8\xed\xe3\xe8\\!_35_\xcb\xe5\xf2\xee_2024\\DreamCast\\\xc0\xeb\xff \xe8\xed\xee\xe3\xe4\xe0 \xea\xee\xea\xe5\xf2\xed\xe8\xf7\xe0\xe5\xf2 \xf1\xee \xec\xed\xee\xe9 \xef\xee-\xf0\xf3\xf1\xf1\xea\xe8\\[DC] Roshidere - 05_Telegram_HEVC.mkv" -r 24000/1001 -i "G:\\\xc0\xed\xe8\xec\xe5\\\xce\xed\xe3\xee\xe8\xed\xe3\xe8\\!_35_\xcb\xe5\xf2\xee_2024\\DreamCast\\\xc0\xeb\xff \xe8\xed\xee\xe3\xe4\xe0 \xea\xee\xea\xe5\xf2\xed\xe8\xf7\xe0\xe5\xf2 \xf1\xee \xec\xed\xee\xe9 \xef\xee-\xf0\xf3\xf1\xf1\xea\xe8\\[DC] Roshidere - 05_Telegram.mp4" -lavfi "[0:v]settb=AVTB,setpts=PTS-STARTPTS,format=pix_fmts=yuv420p10,fps=24000/1001,scale=1920:1080:flags=bicubic[main];[1:v]settb=AVTB,setpts=PTS-STARTPTS,format=pix_fmts=yuv420p,fps=24000/1001,scale=1920:1080:flags=bicubic[ref];[main][ref]libvmaf=eof_action=endall:log_path='D\\:/Convert/FFMetrics/logs/vmaf_logfile-6.txt':n_threads=32:pool=Mean:model=version=vmaf_v0.6.1" -f null -
Input #0, matroska,webm, from 'G:\Аниме\Онгоинги\!_35_Лето_2024\DreamCast\Аля иногда кокетничает со мной по-русски\[DC] Roshidere - 05_Telegram_HEVC.mkv':
  Metadata:
    COMPATIBLE_BRANDS: isomiso2avc1mp41
    MAJOR_BRAND     : isom
    MINOR_VERSION   : 512
    ENCODER         : Lavf61.7.100
  Duration: 00:24:17.58, start: -0.021000, bitrate: 945 kb/s
  Stream #0:0: Video: hevc (Main 10), yuv420p10le(tv, bt709, progressive), 1920x1080 [SAR 1:1 DAR 16:9], 23.98 fps, 23.98 tbr, 1k tbn (default)
      Metadata:
        HANDLER_NAME    : VideoHandler
        VENDOR_ID       : [0][0][0][0]
        ENCODER         : Lavc61.19.100 libx265
        BPS             : 748743
        DURATION        : 00:24:16.496708333
        NUMBER_OF_FRAMES: 34921
        NUMBER_OF_BYTES : 136317746
        _STATISTICS_WRITING_APP: mkvpropedit v66.0.0 ('Josie') 64-bit
        _STATISTICS_WRITING_DATE_UTC: 2025-03-21 10:22:31
        _STATISTICS_TAGS: BPS DURATION NUMBER_OF_FRAMES NUMBER_OF_BYTES
  Stream #0:1: Audio: aac (LC), 48000 Hz, stereo, fltp (default)
      Metadata:
        HANDLER_NAME    : SoundHandler
        VENDOR_ID       : [0][0][0][0]
        ENCODER         : Lavc61.19.100 aac
        BPS             : 192856
        DURATION        : 00:24:17.578000000
        NUMBER_OF_FRAMES: 68325
        NUMBER_OF_BYTES : 35137858
        _STATISTICS_WRITING_APP: mkvpropedit v66.0.0 ('Josie') 64-bit
        _STATISTICS_WRITING_DATE_UTC: 2025-03-21 10:22:31
        _STATISTICS_TAGS: BPS DURATION NUMBER_OF_FRAMES NUMBER_OF_BYTES
Input #1, mov,mp4,m4a,3gp,3g2,mj2, from 'G:\Аниме\Онгоинги\!_35_Лето_2024\DreamCast\Аля иногда кокетничает со мной по-русски\[DC] Roshidere - 05_Telegram.mp4':
  Metadata:
    major_brand     : isom
    minor_version   : 512
    compatible_brands: isomiso2avc1mp41
    encoder         : Lavf61.1.100
  Duration: 00:24:17.53, start: 0.000000, bitrate: 3744 kb/s
  Stream #1:0[0x1](und): Video: h264 (High) (avc1 / 0x31637661), yuv420p(tv, bt709, progressive), 1920x1080 [SAR 1:1 DAR 16:9], 3598 kb/s, 23.98 fps, 23.98 tbr, 24k tbn (default)
      Metadata:
        handler_name    : VideoHandler
        vendor_id       : [0][0][0][0]
        encoder         : Lavc61.3.100 h264_qsv
  Stream #1:1[0x2](und): Audio: aac (HE-AACv2) (mp4a / 0x6134706D), 48000 Hz, stereo, fltp, 144 kb/s (default)
      Metadata:
        handler_name    : SoundHandler
        vendor_id       : [0][0][0][0]
Stream mapping:
  Stream #0:0 (hevc) -> settb:default
  Stream #1:0 (h264) -> settb:default
  libvmaf:default -> Stream #0:0 (wrapped_avframe)
  Stream #0:1 -> #0:1 (aac (native) -> pcm_s16le (native))
Output #0, null, to 'pipe:':
  Metadata:
    COMPATIBLE_BRANDS: isomiso2avc1mp41
    MAJOR_BRAND     : isom
    MINOR_VERSION   : 512
    encoder         : Lavf61.7.100
  Stream #0:0: Video: wrapped_avframe, yuv420p10le(tv, bt709, progressive), 1920x1080 [SAR 1:1 DAR 16:9], q=2-31, 200 kb/s, 23.98 fps, 23.98 tbn
      Metadata:
        encoder         : Lavc61.19.100 wrapped_avframe
  Stream #0:1: Audio: pcm_s16le, 48000 Hz, stereo, s16, 1536 kb/s (default)
      Metadata:
        HANDLER_NAME    : SoundHandler
        VENDOR_ID       : [0][0][0][0]
        _STATISTICS_TAGS: BPS DURATION NUMBER_OF_FRAMES NUMBER_OF_BYTES
        BPS             : 192856
        DURATION        : 00:24:17.578000000
        NUMBER_OF_FRAMES: 68325
        NUMBER_OF_BYTES : 35137858
        _STATISTICS_WRITING_APP: mkvpropedit v66.0.0 ('Josie') 64-bit
        _STATISTICS_WRITING_DATE_UTC: 2025-03-21 10:22:31
        encoder         : Lavc61.19.100 pcm_s16le
frame=   38 fps=0.0 q=-0.0 size=N/A time=00:00:01.58 bitrate=N/A speed=3.07x    frame=   82 fps= 80 q=-0.0 size=N/A time=00:00:03.42 bitrate=N/A speed=3.33x    frame=  130 fps= 84 q=-0.0 size=N/A time=00:00:05.42 bitrate=N/A speed=3.49x    frame=  176 fps= 85 q=-0.0 size=N/A time=00:00:07.34 bitrate=N/A speed=3.56x    frame=  221 fps= 86 q=-0.0 size=N/A time=00:00:09.21 bitrate=N/A speed=3.58x    frame=  268 fps= 87 q=-0.0 size=N/A time=00:00:11.17 bitrate=N/A speed=3.61x    frame=  313 fps= 87 q=-0.0 size=N/A time=00:00:13.05 bitrate=N/A speed=3.62x    frame=  359 fps= 87 q=-0.0 size=N/A time=00:00:14.97 bitrate=N/A speed=3.64x    frame=  406 fps= 87 q=-0.0 size=N/A time=00:00:16.93 bitrate=N/A speed=3.65x    frame=  453 fps= 88 q=-0.0 size=N/A time=00:00:18.89 bitrate=N/A speed=3.67x    frame=  498 fps= 88 q=-0.0 size=N/A time=00:00:20.77 bitrate=N/A speed=3.67x    frame=  545 fps= 88 q=-0.0 size=N/A time=00:00:22.73 bitrate=N/A speed=3.67x    frame=  591 fps= 88 q=-0.0 size=N/A time=00:00:24.64 bitrate=N/A speed=3.68x    frame=  636 fps= 88 q=-0.0 size=N/A time=00:00:26.52 bitrate=N/A speed=3.68x    frame=  683 fps= 88 q=-0.0 size=N/A time=00:00:28.48 bitrate=N/A speed=3.68x    frame=  727 fps= 88 q=-0.0 size=N/A time=00:00:30.32 bitrate=N/A speed=3.67x    frame=  771 fps= 88 q=-0.0 size=N/A time=00:00:32.15 bitrate=N/A speed=3.67x    frame=  814 fps= 88 q=-0.0 size=N/A time=00:00:33.95 bitrate=N/A speed=3.66x    frame=  862 fps= 88 q=-0.0 size=N/A time=00:00:35.95 bitrate=N/A speed=3.67x    frame=  906 fps= 88 q=-0.0 size=N/A time=00:00:37.78 bitrate=N/A speed=3.67x    frame=  952 fps= 88 q=-0.0 size=N/A time=00:00:39.70 bitrate=N/A speed=3.67x    frame=  996 fps= 88 q=-0.0 size=N/A time=00:00:41.54 bitrate=N/A speed=3.66x    frame= 1039 fps= 88 q=-0.0 size=N/A time=00:00:43.33 bitrate=N/A speed=3.66x    frame= 1085 fps= 88 q=-0.0 size=N/A time=00:00:45.25 bitrate=N/A speed=3.66x    frame= 1128 fps= 88 q=-0.0 size=N/A time=00:00:47.04 bitrate=N/A speed=3.65x    frame= 1169 fps= 87 q=-0.0 size=N/A time=00:00:48.75 bitrate=N/A speed=3.64x    frame= 1214 fps= 87 q=-0.0 size=N/A time=00:00:50.63 bitrate=N/A speed=3.64x    frame= 1258 fps= 87 q=-0.0 size=N/A time=00:00:52.46 bitrate=N/A speed=3.63x    frame= 1303 fps= 87 q=-0.0 size=N/A time=00:00:54.34 bitrate=N/A speed=3.64x    frame= 1350 fps= 87 q=-0.0 size=N/A time=00:00:56.30 bitrate=N/A speed=3.64x    frame= 1394 fps= 87 q=-0.0 size=N/A time=00:00:58.14 bitrate=N/A speed=3.64x    frame= 1439 fps= 87 q=-0.0 size=N/A time=00:01:00.01 bitrate=N/A speed=3.64x    frame= 1482 fps= 87 q=-0.0 size=N/A time=00:01:01.81 bitrate=N/A speed=3.63x    frame= 1527 fps= 87 q=-0.0 size=N/A time=00:01:03.68 bitrate=N/A speed=3.63x    frame= 1572 fps= 87 q=-0.0 size=N/A time=00:01:05.56 bitrate=N/A speed=3.63x    frame= 1616 fps= 87 q=-0.0 size=N/A time=00:01:07.40 bitrate=N/A speed=3.63x    frame= 1662 fps= 87 q=-0.0 size=N/A time=00:01:09.31 bitrate=N/A speed=3.63x    frame= 1705 fps= 87 q=-0.0 size=N/A time=00:01:11.11 bitrate=N/A speed=3.63x    frame= 1751 fps= 87 q=-0.0 size=N/A time=00:01:13.03 bitrate=N/A speed=3.63x    frame= 1793 fps= 87 q=-0.0 size=N/A time=00:01:14.78 bitrate=N/A speed=3.63x    frame= 1838 fps= 87 q=-0.0 size=N/A time=00:01:16.65 bitrate=N/A speed=3.63x    frame= 1882 fps= 87 q=-0.0 size=N/A time=00:01:18.49 bitrate=N/A speed=3.62x    frame= 1928 fps= 87 q=-0.0 size=N/A time=00:01:20.41 bitrate=N/A speed=3.63x    frame= 1976 fps= 87 q=-0.0 size=N/A time=00:01:22.41 bitrate=N/A speed=3.63x    frame= 2022 fps= 87 q=-0.0 size=N/A time=00:01:24.33 bitrate=N/A speed=3.63x    frame= 2066 fps= 87 q=-0.0 size=N/A time=00:01:26.16 bitrate=N/A speed=3.63x    frame= 2109 fps= 87 q=-0.0 size=N/A time=00:01:27.96 bitrate=N/A speed=3.63x    frame= 2156 fps= 87 q=-0.0 size=N/A time=00:01:29.92 bitrate=N/A speed=3.63x    frame= 2201 fps= 87 q=-0.0 size=N/A time=00:01:31.80 bitrate=N/A speed=3.63x    frame= 2247 fps= 87 q=-0.0 size=N/A time=00:01:33.71 bitrate=N/A speed=3.63x    frame= 2294 fps= 87 q=-0.0 size=N/A time=00:01:35.67 bitrate=N/A speed=3.64x    frame= 2338 fps= 87 q=-0.0 size=N/A time=00:01:37.51 bitrate=N/A speed=3.63x    frame= 2384 fps= 87 q=-0.0 size=N/A time=00:01:39.43 bitrate=N/A speed=3.64x    frame= 2430 fps= 87 q=-0.0 size=N/A time=00:01:41.35 bitrate=N/A speed=3.64x    frame= 2472 fps= 87 q=-0.0 size=N/A time=00:01:43.10 bitrate=N/A speed=3.63x    frame= 2518 fps= 87 q=-0.0 size=N/A time=00:01:45.02 bitrate=N/A speed=3.64x    frame= 2563 fps= 87 q=-0.0 size=N/A time=00:01:46.89 bitrate=N/A speed=3.63x    frame= 2606 fps= 87 q=-0.0 size=N/A time=00:01:48.69 bitrate=N/A speed=3.63x    frame= 2650 fps= 87 q=-0.0 size=N/A time=00:01:50.52 bitrate=N/A speed=3.63x    frame= 2694 fps= 87 q=-0.0 size=N/A time=00:01:52.36 bitrate=N/A speed=3.63x    frame= 2742 fps= 87 q=-0.0 size=N/A time=00:01:54.36 bitrate=N/A speed=3.63x    frame= 2786 fps= 87 q=-0.0 size=N/A time=00:01:56.19 bitrate=N/A speed=3.63x    frame= 2833 fps= 87 q=-0.0 size=N/A time=00:01:58.15 bitrate=N/A speed=3.64x    frame= 2875 fps= 87 q=-0.0 size=N/A time=00:01:59.91 bitrate=N/A speed=3.63x    frame= 2918 fps= 87 q=-0.0 size=N/A time=00:02:01.70 bitrate=N/A speed=3.63x    frame= 2962 fps= 87 q=-0.0 size=N/A time=00:02:03.54 bitrate=N/A speed=3.63x    frame= 3006 fps= 87 q=-0.0 size=N/A time=00:02:05.37 bitrate=N/A speed=3.63x    frame= 3051 fps= 87 q=-0.0 size=N/A time=00:02:07.25 bitrate=N/A speed=3.63x    frame= 3096 fps= 87 q=-0.0 size=N/A time=00:02:09.12 bitrate=N/A speed=3.63x    frame= 3140 fps= 87 q=-0.0 size=N/A time=00:02:10.96 bitrate=N/A speed=3.63x    frame= 3183 fps= 87 q=-0.0 size=N/A time=00:02:12.75 bitrate=N/A speed=3.63x    frame= 3229 fps= 87 q=-0.0 size=N/A time=00:02:14.67 bitrate=N/A speed=3.63x    frame= 3273 fps= 87 q=-0.0 size=N/A time=00:02:16.51 bitrate=N/A speed=3.63x    frame= 3317 fps= 87 q=-0.0 size=N/A time=00:02:18.34 bitrate=N/A speed=3.62x    frame= 3361 fps= 87 q=-0.0 size=N/A time=00:02:20.18 bitrate=N/A speed=3.62x    frame= 3407 fps= 87 q=-0.0 size=N/A time=00:02:22.10 bitrate=N/A speed=3.62x    frame= 3451 fps= 87 q=-0.0 size=N/A time=00:02:23.93 bitrate=N/A speed=3.62x    frame= 3495 fps= 87 q=-0.0 size=N/A time=00:02:25.77 bitrate=N/A speed=3.62x    frame= 3540 fps= 87 q=-0.0 size=N/A time=00:02:27.64 bitrate=N/A speed=3.62x    frame= 3584 fps= 87 q=-0.0 size=N/A time=00:02:29.48 bitrate=N/A speed=3.62x    frame= 3627 fps= 87 q=-0.0 size=N/A time=00:02:31.27 bitrate=N/A speed=3.62x    frame= 3676 fps= 87 q=-0.0 size=N/A time=00:02:33.31 bitrate=N/A speed=3.62x    frame= 3720 fps= 87 q=-0.0 size=N/A time=00:02:35.15 bitrate=N/A speed=3.62x    frame= 3765 fps= 87 q=-0.0 size=N/A time=00:02:37.03 bitrate=N/A speed=3.62x    frame= 3811 fps= 87 q=-0.0 size=N/A time=00:02:38.95 bitrate=N/A speed=3.62x    frame= 3855 fps= 87 q=-0.0 size=N/A time=00:02:40.78 bitrate=N/A speed=3.62x    frame= 3897 fps= 87 q=-0.0 size=N/A time=00:02:42.53 bitrate=N/A speed=3.62x    frame= 3943 fps= 87 q=-0.0 size=N/A time=00:02:44.45 bitrate=N/A speed=3.62x    frame= 3986 fps= 87 q=-0.0 size=N/A time=00:02:46.24 bitrate=N/A speed=3.62x    frame= 4029 fps= 87 q=-0.0 size=N/A time=00:02:48.04 bitrate=N/A speed=3.62x    frame= 4073 fps= 87 q=-0.0 size=N/A time=00:02:49.87 bitrate=N/A speed=3.62x    frame= 4116 fps= 87 q=-0.0 size=N/A time=00:02:51.67 bitrate=N/A speed=3.62x    frame= 4161 fps= 87 q=-0.0 size=N/A time=00:02:53.54 bitrate=N/A speed=3.62x    frame= 4206 fps= 87 q=-0.0 size=N/A time=00:02:55.42 bitrate=N/A speed=3.62x    frame= 4250 fps= 87 q=-0.0 size=N/A time=00:02:57.26 bitrate=N/A speed=3.62x    frame= 4297 fps= 87 q=-0.0 size=N/A time=00:02:59.22 bitrate=N/A speed=3.62x    frame= 4341 fps= 87 q=-0.0 size=N/A time=00:03:01.05 bitrate=N/A speed=3.62x    frame= 4383 fps= 87 q=-0.0 size=N/A time=00:03:02.80 bitrate=N/A speed=3.62x    frame= 4427 fps= 87 q=-0.0 size=N/A time=00:03:04.64 bitrate=N/A speed=3.61x    frame= 4470 fps= 87 q=-0.0 size=N/A time=00:03:06.43 bitrate=N/A speed=3.61x    frame= 4516 fps= 87 q=-0.0 size=N/A time=00:03:08.35 bitrate=N/A speed=3.61x    frame= 4559 fps= 87 q=-0.0 size=N/A time=00:03:10.14 bitrate=N/A speed=3.61x    frame= 4606 fps= 87 q=-0.0 size=N/A time=00:03:12.10 bitrate=N/A speed=3.62x    frame= 4649 fps= 87 q=-0.0 size=N/A time=00:03:13.90 bitrate=N/A speed=3.61x    frame= 4694 fps= 87 q=-0.0 size=N/A time=00:03:15.77 bitrate=N/A speed=3.61x    frame= 4738 fps= 87 q=-0.0 size=N/A time=00:03:17.61 bitrate=N/A speed=3.61x    frame= 4783 fps= 87 q=-0.0 size=N/A time=00:03:19.49 bitrate=N/A speed=3.61x    frame= 4825 fps= 87 q=-0.0 size=N/A time=00:03:21.24 bitrate=N/A speed=3.61x    frame= 4870 fps= 87 q=-0.0 size=N/A time=00:03:23.11 bitrate=N/A speed=3.61x    frame= 4913 fps= 87 q=-0.0 size=N/A time=00:03:24.91 bitrate=N/A speed=3.61x    frame= 4960 fps= 87 q=-0.0 size=N/A time=00:03:26.87 bitrate=N/A speed=3.61x    frame= 5004 fps= 87 q=-0.0 size=N/A time=00:03:28.70 bitrate=N/A speed=3.61x    frame= 5053 fps= 87 q=-0.0 size=N/A time=00:03:30.75 bitrate=N/A speed=3.61x    frame= 5097 fps= 87 q=-0.0 size=N/A time=00:03:32.58 bitrate=N/A speed=3.61x    frame= 5143 fps= 87 q=-0.0 size=N/A time=00:03:34.50 bitrate=N/A speed=3.62x    frame= 5186 fps= 87 q=-0.0 size=N/A time=00:03:36.29 bitrate=N/A speed=3.61x    frame= 5232 fps= 87 q=-0.0 size=N/A time=00:03:38.21 bitrate=N/A speed=3.62x    frame= 5276 fps= 87 q=-0.0 size=N/A time=00:03:40.05 bitrate=N/A speed=3.62x    frame= 5323 fps= 87 q=-0.0 size=N/A time=00:03:42.01 bitrate=N/A speed=3.62x    frame= 5368 fps= 87 q=-0.0 size=N/A time=00:03:43.89 bitrate=N/A speed=3.62x    frame= 5413 fps= 87 q=-0.0 size=N/A time=00:03:45.76 bitrate=N/A speed=3.62x    frame= 5461 fps= 87 q=-0.0 size=N/A time=00:03:47.76 bitrate=N/A speed=3.62x    frame= 5505 fps= 87 q=-0.0 size=N/A time=00:03:49.60 bitrate=N/A speed=3.62x    frame= 5548 fps= 87 q=-0.0 size=N/A time=00:03:51.39 bitrate=N/A speed=3.62x    frame= 5592 fps= 87 q=-0.0 size=N/A time=00:03:53.23 bitrate=N/A speed=3.62x    frame= 5637 fps= 87 q=-0.0 size=N/A time=00:03:55.10 bitrate=N/A speed=3.62x    frame= 5683 fps= 87 q=-0.0 size=N/A time=00:03:57.02 bitrate=N/A speed=3.62x    frame= 5726 fps= 87 q=-0.0 size=N/A time=00:03:58.82 bitrate=N/A speed=3.62x    frame= 5772 fps= 87 q=-0.0 size=N/A time=00:04:00.74 bitrate=N/A speed=3.62x    frame= 5817 fps= 87 q=-0.0 size=N/A time=00:04:02.61 bitrate=N/A speed=3.62x    frame= 5864 fps= 87 q=-0.0 size=N/A time=00:04:04.57 bitrate=N/A speed=3.62x    frame= 5907 fps= 87 q=-0.0 size=N/A time=00:04:06.37 bitrate=N/A speed=3.62x    frame= 5951 fps= 87 q=-0.0 size=N/A time=00:04:08.20 bitrate=N/A speed=3.62x    frame= 5996 fps= 87 q=-0.0 size=N/A time=00:04:10.08 bitrate=N/A speed=3.62x    frame= 6039 fps= 87 q=-0.0 size=N/A time=00:04:11.87 bitrate=N/A speed=3.62x    frame= 6082 fps= 87 q=-0.0 size=N/A time=00:04:13.67 bitrate=N/A speed=3.62x    frame= 6127 fps= 87 q=-0.0 size=N/A time=00:04:15.54 bitrate=N/A speed=3.62x    frame= 6172 fps= 87 q=-0.0 size=N/A time=00:04:17.42 bitrate=N/A speed=3.62x    frame= 6216 fps= 87 q=-0.0 size=N/A time=00:04:19.25 bitrate=N/A speed=3.62x    frame= 6261 fps= 87 q=-0.0 size=N/A time=00:04:21.13 bitrate=N/A speed=3.62x    frame= 6306 fps= 87 q=-0.0 size=N/A time=00:04:23.01 bitrate=N/A speed=3.62x    frame= 6350 fps= 87 q=-0.0 size=N/A time=00:04:24.84 bitrate=N/A speed=3.62x    frame= 6396 fps= 87 q=-0.0 size=N/A time=00:04:26.76 bitrate=N/A speed=3.62x    frame= 6439 fps= 87 q=-0.0 size=N/A time=00:04:28.55 bitrate=N/A speed=3.62x    frame= 6486 fps= 87 q=-0.0 size=N/A time=00:04:30.52 bitrate=N/A speed=3.62x    frame= 6531 fps= 87 q=-0.0 size=N/A time=00:04:32.39 bitrate=N/A speed=3.62x    frame= 6577 fps= 87 q=-0.0 size=N/A time=00:04:34.31 bitrate=N/A speed=3.62x    frame= 6621 fps= 87 q=-0.0 size=N/A time=00:04:36.15 bitrate=N/A speed=3.62x    frame= 6665 fps= 87 q=-0.0 size=N/A time=00:04:37.98 bitrate=N/A speed=3.62x    frame= 6710 fps= 87 q=-0.0 size=N/A time=00:04:39.86 bitrate=N/A speed=3.62x    frame= 6754 fps= 87 q=-0.0 size=N/A time=00:04:41.69 bitrate=N/A speed=3.62x    frame= 6799 fps= 87 q=-0.0 size=N/A time=00:04:43.57 bitrate=N/A speed=3.62x    frame= 6846 fps= 87 q=-0.0 size=N/A time=00:04:45.53 bitrate=N/A speed=3.62x    frame= 6890 fps= 87 q=-0.0 size=N/A time=00:04:47.37 bitrate=N/A speed=3.62x    frame= 6935 fps= 87 q=-0.0 size=N/A time=00:04:49.24 bitrate=N/A speed=3.62x    frame= 6978 fps= 87 q=-0.0 size=N/A time=00:04:51.04 bitrate=N/A speed=3.62x    frame= 7022 fps= 87 q=-0.0 size=N/A time=00:04:52.87 bitrate=N/A speed=3.62x    frame= 7067 fps= 87 q=-0.0 size=N/A time=00:04:54.75 bitrate=N/A speed=3.62x    frame= 7111 fps= 87 q=-0.0 size=N/A time=00:04:56.58 bitrate=N/A speed=3.62x    frame= 7155 fps= 87 q=-0.0 size=N/A time=00:04:58.42 bitrate=N/A speed=3.62x    frame= 7200 fps= 87 q=-0.0 size=N/A time=00:05:00.30 bitrate=N/A speed=3.62x    frame= 7243 fps= 87 q=-0.0 size=N/A time=00:05:02.09 bitrate=N/A speed=3.62x    frame= 7288 fps= 87 q=-0.0 size=N/A time=00:05:03.97 bitrate=N/A speed=3.62x    frame= 7331 fps= 87 q=-0.0 size=N/A time=00:05:05.76 bitrate=N/A speed=3.61x    frame= 7374 fps= 87 q=-0.0 size=N/A time=00:05:07.55 bitrate=N/A speed=3.61x    frame= 7418 fps= 87 q=-0.0 size=N/A time=00:05:09.39 bitrate=N/A speed=3.61x    frame= 7466 fps= 87 q=-0.0 size=N/A time=00:05:11.39 bitrate=N/A speed=3.61x    frame= 7510 fps= 87 q=-0.0 size=N/A time=00:05:13.22 bitrate=N/A speed=3.61x    frame= 7555 fps= 87 q=-0.0 size=N/A time=00:05:15.10 bitrate=N/A speed=3.61x    frame= 7597 fps= 87 q=-0.0 size=N/A time=00:05:16.85 bitrate=N/A speed=3.61x    frame= 7645 fps= 87 q=-0.0 size=N/A time=00:05:18.86 bitrate=N/A speed=3.61x    frame= 7689 fps= 87 q=-0.0 size=N/A time=00:05:20.69 bitrate=N/A speed=3.61x    frame= 7733 fps= 87 q=-0.0 size=N/A time=00:05:22.53 bitrate=N/A speed=3.61x    frame= 7779 fps= 87 q=-0.0 size=N/A time=00:05:24.44 bitrate=N/A speed=3.61x    frame= 7822 fps= 87 q=-0.0 size=N/A time=00:05:26.24 bitrate=N/A speed=3.61x    frame= 7868 fps= 87 q=-0.0 size=N/A time=00:05:28.16 bitrate=N/A speed=3.61x    frame= 7910 fps= 87 q=-0.0 size=N/A time=00:05:29.91 bitrate=N/A speed=3.61x    frame= 7956 fps= 87 q=-0.0 size=N/A time=00:05:31.83 bitrate=N/A speed=3.61x    frame= 8002 fps= 87 q=-0.0 size=N/A time=00:05:33.75 bitrate=N/A speed=3.61x    frame= 8047 fps= 87 q=-0.0 size=N/A time=00:05:35.62 bitrate=N/A speed=3.62x    frame= 8093 fps= 87 q=-0.0 size=N/A time=00:05:37.54 bitrate=N/A speed=3.62x    frame= 8137 fps= 87 q=-0.0 size=N/A time=00:05:39.38 bitrate=N/A speed=3.62x    frame= 8181 fps= 87 q=-0.0 size=N/A time=00:05:41.21 bitrate=N/A speed=3.62x    frame= 8226 fps= 87 q=-0.0 size=N/A time=00:05:43.09 bitrate=N/A speed=3.61x    frame= 8271 fps= 87 q=-0.0 size=N/A time=00:05:44.96 bitrate=N/A speed=3.62x    frame= 8317 fps= 87 q=-0.0 size=N/A time=00:05:46.88 bitrate=N/A speed=3.62x    frame= 8365 fps= 87 q=-0.0 size=N/A time=00:05:48.89 bitrate=N/A speed=3.62x    frame= 8409 fps= 87 q=-0.0 size=N/A time=00:05:50.72 bitrate=N/A speed=3.62x    frame= 8452 fps= 87 q=-0.0 size=N/A time=00:05:52.51 bitrate=N/A speed=3.62x    frame= 8498 fps= 87 q=-0.0 size=N/A time=00:05:54.43 bitrate=N/A speed=3.62x    frame= 8543 fps= 87 q=-0.0 size=N/A time=00:05:56.31 bitrate=N/A speed=3.62x    frame= 8588 fps= 87 q=-0.0 size=N/A time=00:05:58.19 bitrate=N/A speed=3.62x    frame= 8634 fps= 87 q=-0.0 size=N/A time=00:06:00.10 bitrate=N/A speed=3.62x    frame= 8678 fps= 87 q=-0.0 size=N/A time=00:06:01.94 bitrate=N/A speed=3.62x    frame= 8719 fps= 87 q=-0.0 size=N/A time=00:06:03.65 bitrate=N/A speed=3.62x    frame= 8767 fps= 87 q=-0.0 size=N/A time=00:06:05.65 bitrate=N/A speed=3.62x    frame= 8812 fps= 87 q=-0.0 size=N/A time=00:06:07.53 bitrate=N/A speed=3.62x    frame= 8856 fps= 87 q=-0.0 size=N/A time=00:06:09.36 bitrate=N/A speed=3.62x    frame= 8902 fps= 87 q=-0.0 size=N/A time=00:06:11.28 bitrate=N/A speed=3.62x    frame= 8950 fps= 87 q=-0.0 size=N/A time=00:06:13.28 bitrate=N/A speed=3.62x    frame= 8995 fps= 87 q=-0.0 size=N/A time=00:06:15.16 bitrate=N/A speed=3.62x    frame= 9040 fps= 87 q=-0.0 size=N/A time=00:06:17.04 bitrate=N/A speed=3.62x    frame= 9085 fps= 87 q=-0.0 size=N/A time=00:06:18.92 bitrate=N/A speed=3.62x    frame= 9128 fps= 87 q=-0.0 size=N/A time=00:06:20.71 bitrate=N/A speed=3.62x    frame= 9173 fps= 87 q=-0.0 size=N/A time=00:06:22.59 bitrate=N/A speed=3.62x    frame= 9219 fps= 87 q=-0.0 size=N/A time=00:06:24.50 bitrate=N/A speed=3.62x    frame= 9264 fps= 87 q=-0.0 size=N/A time=00:06:26.38 bitrate=N/A speed=3.62x    frame= 9308 fps= 87 q=-0.0 size=N/A time=00:06:28.22 bitrate=N/A speed=3.62x    frame= 9352 fps= 87 q=-0.0 size=N/A time=00:06:30.05 bitrate=N/A speed=3.62x    frame= 9397 fps= 87 q=-0.0 size=N/A time=00:06:31.93 bitrate=N/A speed=3.62x    frame= 9443 fps= 87 q=-0.0 size=N/A time=00:06:33.85 bitrate=N/A speed=3.62x    frame= 9488 fps= 87 q=-0.0 size=N/A time=00:06:35.72 bitrate=N/A speed=3.62x    frame= 9532 fps= 87 q=-0.0 size=N/A time=00:06:37.56 bitrate=N/A speed=3.62x    frame= 9578 fps= 87 q=-0.0 size=N/A time=00:06:39.48 bitrate=N/A speed=3.62x    frame= 9621 fps= 87 q=-0.0 size=N/A time=00:06:41.27 bitrate=N/A speed=3.62x    frame= 9666 fps= 87 q=-0.0 size=N/A time=00:06:43.15 bitrate=N/A speed=3.62x    frame= 9713 fps= 87 q=-0.0 size=N/A time=00:06:45.11 bitrate=N/A speed=3.62x    frame= 9758 fps= 87 q=-0.0 size=N/A time=00:06:46.98 bitrate=N/A speed=3.62x    frame= 9800 fps= 87 q=-0.0 size=N/A time=00:06:48.74 bitrate=N/A speed=3.62x    frame= 9848 fps= 87 q=-0.0 size=N/A time=00:06:50.74 bitrate=N/A speed=3.62x    frame= 9891 fps= 87 q=-0.0 size=N/A time=00:06:52.53 bitrate=N/A speed=3.62x    frame= 9936 fps= 87 q=-0.0 size=N/A time=00:06:54.41 bitrate=N/A speed=3.62x    frame= 9981 fps= 87 q=-0.0 size=N/A time=00:06:56.29 bitrate=N/A speed=3.62x    frame=10026 fps= 87 q=-0.0 size=N/A time=00:06:58.16 bitrate=N/A speed=3.62x    frame=10073 fps= 87 q=-0.0 size=N/A time=00:07:00.12 bitrate=N/A speed=3.62x    frame=10119 fps= 87 q=-0.0 size=N/A time=00:07:02.04 bitrate=N/A speed=3.62x    frame=10163 fps= 87 q=-0.0 size=N/A time=00:07:03.88 bitrate=N/A speed=3.62x    frame=10207 fps= 87 q=-0.0 size=N/A time=00:07:05.71 bitrate=N/A speed=3.62x    frame=10252 fps= 87 q=-0.0 size=N/A time=00:07:07.59 bitrate=N/A speed=3.62x    frame=10295 fps= 87 q=-0.0 size=N/A time=00:07:09.38 bitrate=N/A speed=3.62x    frame=10342 fps= 87 q=-0.0 size=N/A time=00:07:11.34 bitrate=N/A speed=3.62x    frame=10389 fps= 87 q=-0.0 size=N/A time=00:07:13.30 bitrate=N/A speed=3.62x    frame=10434 fps= 87 q=-0.0 size=N/A time=00:07:15.18 bitrate=N/A speed=3.62x    frame=10478 fps= 87 q=-0.0 size=N/A time=00:07:17.01 bitrate=N/A speed=3.62x    frame=10524 fps= 87 q=-0.0 size=N/A time=00:07:18.93 bitrate=N/A speed=3.62x    frame=10570 fps= 87 q=-0.0 size=N/A time=00:07:20.85 bitrate=N/A speed=3.62x    frame=10616 fps= 87 q=-0.0 size=N/A time=00:07:22.77 bitrate=N/A speed=3.62x    frame=10661 fps= 87 q=-0.0 size=N/A time=00:07:24.65 bitrate=N/A speed=3.62x    frame=10702 fps= 87 q=-0.0 size=N/A time=00:07:26.36 bitrate=N/A speed=3.62x    frame=10747 fps= 87 q=-0.0 size=N/A time=00:07:28.23 bitrate=N/A speed=3.62x    frame=10794 fps= 87 q=-0.0 size=N/A time=00:07:30.19 bitrate=N/A speed=3.62x    frame=10840 fps= 87 q=-0.0 size=N/A time=00:07:32.11 bitrate=N/A speed=3.62x    frame=10886 fps= 87 q=-0.0 size=N/A time=00:07:34.03 bitrate=N/A speed=3.62x    frame=10932 fps= 87 q=-0.0 size=N/A time=00:07:35.95 bitrate=N/A speed=3.62x    frame=10977 fps= 87 q=-0.0 size=N/A time=00:07:37.83 bitrate=N/A speed=3.62x    frame=11019 fps= 87 q=-0.0 size=N/A time=00:07:39.58 bitrate=N/A speed=3.62x    frame=11066 fps= 87 q=-0.0 size=N/A time=00:07:41.54 bitrate=N/A speed=3.62x    frame=11111 fps= 87 q=-0.0 size=N/A time=00:07:43.42 bitrate=N/A speed=3.62x    frame=11155 fps= 87 q=-0.0 size=N/A time=00:07:45.25 bitrate=N/A speed=3.62x    frame=11202 fps= 87 q=-0.0 size=N/A time=00:07:47.21 bitrate=N/A speed=3.62x    frame=11245 fps= 87 q=-0.0 size=N/A time=00:07:49.01 bitrate=N/A speed=3.62x    frame=11288 fps= 87 q=-0.0 size=N/A time=00:07:50.80 bitrate=N/A speed=3.62x    frame=11331 fps= 87 q=-0.0 size=N/A time=00:07:52.59 bitrate=N/A speed=3.62x    frame=11375 fps= 87 q=-0.0 size=N/A time=00:07:54.43 bitrate=N/A speed=3.62x    frame=11421 fps= 87 q=-0.0 size=N/A time=00:07:56.35 bitrate=N/A speed=3.62x    frame=11467 fps= 87 q=-0.0 size=N/A time=00:07:58.26 bitrate=N/A speed=3.62x    frame=11511 fps= 87 q=-0.0 size=N/A time=00:08:00.10 bitrate=N/A speed=3.62x    frame=11556 fps= 87 q=-0.0 size=N/A time=00:08:01.98 bitrate=N/A speed=3.62x    frame=11600 fps= 87 q=-0.0 size=N/A time=00:08:03.81 bitrate=N/A speed=3.62x    frame=11646 fps= 87 q=-0.0 size=N/A time=00:08:05.73 bitrate=N/A speed=3.62x    frame=11691 fps= 87 q=-0.0 size=N/A time=00:08:07.61 bitrate=N/A speed=3.62x    frame=11735 fps= 87 q=-0.0 size=N/A time=00:08:09.44 bitrate=N/A speed=3.62x    frame=11780 fps= 87 q=-0.0 size=N/A time=00:08:11.32 bitrate=N/A speed=3.62x    frame=11827 fps= 87 q=-0.0 size=N/A time=00:08:13.28 bitrate=N/A speed=3.62x    frame=11870 fps= 87 q=-0.0 size=N/A time=00:08:15.07 bitrate=N/A speed=3.62x    frame=11915 fps= 87 q=-0.0 size=N/A time=00:08:16.95 bitrate=N/A speed=3.62x    frame=11959 fps= 87 q=-0.0 size=N/A time=00:08:18.78 bitrate=N/A speed=3.62x    frame=12002 fps= 87 q=-0.0 size=N/A time=00:08:20.58 bitrate=N/A speed=3.62x    frame=12046 fps= 87 q=-0.0 size=N/A time=00:08:22.41 bitrate=N/A speed=3.62x    frame=12091 fps= 87 q=-0.0 size=N/A time=00:08:24.29 bitrate=N/A speed=3.62x    frame=12137 fps= 87 q=-0.0 size=N/A time=00:08:26.21 bitrate=N/A speed=3.62x    frame=12179 fps= 87 q=-0.0 size=N/A time=00:08:27.96 bitrate=N/A speed=3.62x    frame=12226 fps= 87 q=-0.0 size=N/A time=00:08:29.92 bitrate=N/A speed=3.62x    frame=12271 fps= 87 q=-0.0 size=N/A time=00:08:31.84 bitrate=N/A speed=3.62x    frame=12315 fps= 87 q=-0.0 size=N/A time=00:08:33.63 bitrate=N/A speed=3.62x    frame=12360 fps= 87 q=-0.0 size=N/A time=00:08:35.51 bitrate=N/A speed=3.62x    frame=12408 fps= 87 q=-0.0 size=N/A time=00:08:37.51 bitrate=N/A speed=3.62x    frame=12454 fps= 87 q=-0.0 size=N/A time=00:08:39.43 bitrate=N/A speed=3.62x    frame=12497 fps= 87 q=-0.0 size=N/A time=00:08:41.22 bitrate=N/A speed=3.62x    frame=12544 fps= 87 q=-0.0 size=N/A time=00:08:43.18 bitrate=N/A speed=3.62x    frame=12590 fps= 87 q=-0.0 size=N/A time=00:08:45.10 bitrate=N/A speed=3.62x    frame=12634 fps= 87 q=-0.0 size=N/A time=00:08:46.94 bitrate=N/A speed=3.62x    frame=12681 fps= 87 q=-0.0 size=N/A time=00:08:48.90 bitrate=N/A speed=3.62x    frame=12725 fps= 87 q=-0.0 size=N/A time=00:08:50.73 bitrate=N/A speed=3.62x    frame=12769 fps= 87 q=-0.0 size=N/A time=00:08:52.57 bitrate=N/A speed=3.62x    frame=12816 fps= 87 q=-0.0 size=N/A time=00:08:54.53 bitrate=N/A speed=3.62x    frame=12860 fps= 87 q=-0.0 size=N/A time=00:08:56.36 bitrate=N/A speed=3.62x    frame=12903 fps= 87 q=-0.0 size=N/A time=00:08:58.16 bitrate=N/A speed=3.62x    frame=12949 fps= 87 q=-0.0 size=N/A time=00:09:00.08 bitrate=N/A speed=3.62x    frame=12992 fps= 87 q=-0.0 size=N/A time=00:09:01.87 bitrate=N/A speed=3.62x    frame=13037 fps= 87 q=-0.0 size=N/A time=00:09:03.75 bitrate=N/A speed=3.62x    frame=13082 fps= 87 q=-0.0 size=N/A time=00:09:05.62 bitrate=N/A speed=3.62x    frame=13126 fps= 87 q=-0.0 size=N/A time=00:09:07.46 bitrate=N/A speed=3.62x    frame=13170 fps= 87 q=-0.0 size=N/A time=00:09:09.29 bitrate=N/A speed=3.62x    frame=13218 fps= 87 q=-0.0 size=N/A time=00:09:11.30 bitrate=N/A speed=3.62x    frame=13262 fps= 87 q=-0.0 size=N/A time=00:09:13.13 bitrate=N/A speed=3.62x    frame=13306 fps= 87 q=-0.0 size=N/A time=00:09:14.97 bitrate=N/A speed=3.62x    frame=13354 fps= 87 q=-0.0 size=N/A time=00:09:16.97 bitrate=N/A speed=3.62x    frame=13400 fps= 87 q=-0.0 size=N/A time=00:09:18.89 bitrate=N/A speed=3.62x    frame=13448 fps= 87 q=-0.0 size=N/A time=00:09:20.89 bitrate=N/A speed=3.62x    frame=13493 fps= 87 q=-0.0 size=N/A time=00:09:22.77 bitrate=N/A speed=3.62x    frame=13538 fps= 87 q=-0.0 size=N/A time=00:09:24.64 bitrate=N/A speed=3.62x    frame=13585 fps= 87 q=-0.0 size=N/A time=00:09:26.60 bitrate=N/A speed=3.63x    frame=13631 fps= 87 q=-0.0 size=N/A time=00:09:28.52 bitrate=N/A speed=3.63x    frame=13673 fps= 87 q=-0.0 size=N/A time=00:09:30.27 bitrate=N/A speed=3.62x    frame=13718 fps= 87 q=-0.0 size=N/A time=00:09:32.15 bitrate=N/A speed=3.62x    frame=13763 fps= 87 q=-0.0 size=N/A time=00:09:34.03 bitrate=N/A speed=3.62x    frame=13810 fps= 87 q=-0.0 size=N/A time=00:09:35.99 bitrate=N/A speed=3.63x    frame=13854 fps= 87 q=-0.0 size=N/A time=00:09:37.82 bitrate=N/A speed=3.63x    frame=13902 fps= 87 q=-0.0 size=N/A time=00:09:39.82 bitrate=N/A speed=3.63x    frame=13946 fps= 87 q=-0.0 size=N/A time=00:09:41.66 bitrate=N/A speed=3.63x    frame=13990 fps= 87 q=-0.0 size=N/A time=00:09:43.49 bitrate=N/A speed=3.63x    frame=14036 fps= 87 q=-0.0 size=N/A time=00:09:45.41 bitrate=N/A speed=3.63x    frame=14078 fps= 87 q=-0.0 size=N/A time=00:09:47.16 bitrate=N/A speed=3.63x    frame=14124 fps= 87 q=-0.0 size=N/A time=00:09:49.08 bitrate=N/A speed=3.63x    frame=14169 fps= 87 q=-0.0 size=N/A time=00:09:50.96 bitrate=N/A speed=3.63x    frame=14211 fps= 87 q=-0.0 size=N/A time=00:09:52.71 bitrate=N/A speed=3.62x    frame=14257 fps= 87 q=-0.0 size=N/A time=00:09:54.63 bitrate=N/A speed=3.63x    frame=14300 fps= 87 q=-0.0 size=N/A time=00:09:56.42 bitrate=N/A speed=3.62x    frame=14347 fps= 87 q=-0.0 size=N/A time=00:09:58.38 bitrate=N/A speed=3.63x    frame=14392 fps= 87 q=-0.0 size=N/A time=00:10:00.26 bitrate=N/A speed=3.63x    frame=14436 fps= 87 q=-0.0 size=N/A time=00:10:02.10 bitrate=N/A speed=3.63x    frame=14481 fps= 87 q=-0.0 size=N/A time=00:10:03.97 bitrate=N/A speed=3.63x    frame=14524 fps= 87 q=-0.0 size=N/A time=00:10:05.77 bitrate=N/A speed=3.62x    frame=14571 fps= 87 q=-0.0 size=N/A time=00:10:07.73 bitrate=N/A speed=3.63x    frame=14616 fps= 87 q=-0.0 size=N/A time=00:10:09.60 bitrate=N/A speed=3.63x    frame=14659 fps= 87 q=-0.0 size=N/A time=00:10:11.40 bitrate=N/A speed=3.62x    frame=14706 fps= 87 q=-0.0 size=N/A time=00:10:13.36 bitrate=N/A speed=3.63x    frame=14751 fps= 87 q=-0.0 size=N/A time=00:10:15.23 bitrate=N/A speed=3.63x    frame=14795 fps= 87 q=-0.0 size=N/A time=00:10:17.07 bitrate=N/A speed=3.63x    frame=14841 fps= 87 q=-0.0 size=N/A time=00:10:18.99 bitrate=N/A speed=3.63x    frame=14887 fps= 87 q=-0.0 size=N/A time=00:10:20.91 bitrate=N/A speed=3.63x    frame=14933 fps= 87 q=-0.0 size=N/A time=00:10:22.83 bitrate=N/A speed=3.63x    frame=14975 fps= 87 q=-0.0 size=N/A time=00:10:24.58 bitrate=N/A speed=3.63x    frame=15018 fps= 87 q=-0.0 size=N/A time=00:10:26.37 bitrate=N/A speed=3.62x    frame=15065 fps= 87 q=-0.0 size=N/A time=00:10:28.33 bitrate=N/A speed=3.62x    frame=15110 fps= 87 q=-0.0 size=N/A time=00:10:30.21 bitrate=N/A speed=3.63x    frame=15157 fps= 87 q=-0.0 size=N/A time=00:10:32.17 bitrate=N/A speed=3.63x    frame=15202 fps= 87 q=-0.0 size=N/A time=00:10:34.05 bitrate=N/A speed=3.63x    frame=15247 fps= 87 q=-0.0 size=N/A time=00:10:35.92 bitrate=N/A speed=3.63x    frame=15294 fps= 87 q=-0.0 size=N/A time=00:10:37.88 bitrate=N/A speed=3.63x    frame=15338 fps= 87 q=-0.0 size=N/A time=00:10:39.72 bitrate=N/A speed=3.63x    frame=15381 fps= 87 q=-0.0 size=N/A time=00:10:41.51 bitrate=N/A speed=3.63x    frame=15426 fps= 87 q=-0.0 size=N/A time=00:10:43.39 bitrate=N/A speed=3.63x    frame=15470 fps= 87 q=-0.0 size=N/A time=00:10:45.22 bitrate=N/A speed=3.63x    frame=15514 fps= 87 q=-0.0 size=N/A time=00:10:47.06 bitrate=N/A speed=3.63x    frame=15562 fps= 87 q=-0.0 size=N/A time=00:10:49.06 bitrate=N/A speed=3.63x    frame=15605 fps= 87 q=-0.0 size=N/A time=00:10:50.85 bitrate=N/A speed=3.63x    frame=15650 fps= 87 q=-0.0 size=N/A time=00:10:52.73 bitrate=N/A speed=3.63x    frame=15694 fps= 87 q=-0.0 size=N/A time=00:10:54.57 bitrate=N/A speed=3.63x    frame=15739 fps= 87 q=-0.0 size=N/A time=00:10:56.44 bitrate=N/A speed=3.63x    frame=15786 fps= 87 q=-0.0 size=N/A time=00:10:58.40 bitrate=N/A speed=3.63x    frame=15834 fps= 87 q=-0.0 size=N/A time=00:11:00.40 bitrate=N/A speed=3.63x    frame=15880 fps= 87 q=-0.0 size=N/A time=00:11:02.32 bitrate=N/A speed=3.63x    frame=15922 fps= 87 q=-0.0 size=N/A time=00:11:04.08 bitrate=N/A speed=3.63x    frame=15965 fps= 87 q=-0.0 size=N/A time=00:11:05.87 bitrate=N/A speed=3.63x    frame=16010 fps= 87 q=-0.0 size=N/A time=00:11:07.75 bitrate=N/A speed=3.63x    frame=16053 fps= 87 q=-0.0 size=N/A time=00:11:09.54 bitrate=N/A speed=3.63x    frame=16097 fps= 87 q=-0.0 size=N/A time=00:11:11.37 bitrate=N/A speed=3.63x    frame=16144 fps= 87 q=-0.0 size=N/A time=00:11:13.33 bitrate=N/A speed=3.63x    frame=16190 fps= 87 q=-0.0 size=N/A time=00:11:15.25 bitrate=N/A speed=3.63x    frame=16232 fps= 87 q=-0.0 size=N/A time=00:11:17.00 bitrate=N/A speed=3.63x    frame=16277 fps= 87 q=-0.0 size=N/A time=00:11:18.88 bitrate=N/A speed=3.63x    frame=16320 fps= 87 q=-0.0 size=N/A time=00:11:20.68 bitrate=N/A speed=3.63x    frame=16366 fps= 87 q=-0.0 size=N/A time=00:11:22.59 bitrate=N/A speed=3.63x    frame=16411 fps= 87 q=-0.0 size=N/A time=00:11:24.47 bitrate=N/A speed=3.63x    frame=16456 fps= 87 q=-0.0 size=N/A time=00:11:26.35 bitrate=N/A speed=3.63x    frame=16502 fps= 87 q=-0.0 size=N/A time=00:11:28.27 bitrate=N/A speed=3.63x    frame=16545 fps= 87 q=-0.0 size=N/A time=00:11:30.06 bitrate=N/A speed=3.63x    frame=16591 fps= 87 q=-0.0 size=N/A time=00:11:31.98 bitrate=N/A speed=3.63x    frame=16634 fps= 87 q=-0.0 size=N/A time=00:11:33.77 bitrate=N/A speed=3.63x    frame=16676 fps= 87 q=-0.0 size=N/A time=00:11:35.52 bitrate=N/A speed=3.62x    frame=16720 fps= 87 q=-0.0 size=N/A time=00:11:37.36 bitrate=N/A speed=3.62x    frame=16766 fps= 87 q=-0.0 size=N/A time=00:11:39.28 bitrate=N/A speed=3.62x    frame=16810 fps= 87 q=-0.0 size=N/A time=00:11:41.11 bitrate=N/A speed=3.62x    frame=16854 fps= 87 q=-0.0 size=N/A time=00:11:42.95 bitrate=N/A speed=3.62x    frame=16900 fps= 87 q=-0.0 size=N/A time=00:11:44.87 bitrate=N/A speed=3.62x    frame=16944 fps= 87 q=-0.0 size=N/A time=00:11:46.70 bitrate=N/A speed=3.62x    frame=16990 fps= 87 q=-0.0 size=N/A time=00:11:48.62 bitrate=N/A speed=3.62x    frame=17034 fps= 87 q=-0.0 size=N/A time=00:11:50.45 bitrate=N/A speed=3.62x    frame=17079 fps= 87 q=-0.0 size=N/A time=00:11:52.33 bitrate=N/A speed=3.62x    frame=17119 fps= 87 q=-0.0 size=N/A time=00:11:54.00 bitrate=N/A speed=3.62x    frame=17165 fps= 87 q=-0.0 size=N/A time=00:11:55.92 bitrate=N/A speed=3.62x    frame=17208 fps= 87 q=-0.0 size=N/A time=00:11:57.71 bitrate=N/A speed=3.62x    frame=17255 fps= 87 q=-0.0 size=N/A time=00:11:59.67 bitrate=N/A speed=3.62x    frame=17299 fps= 87 q=-0.0 size=N/A time=00:12:01.51 bitrate=N/A speed=3.62x    frame=17343 fps= 87 q=-0.0 size=N/A time=00:12:03.34 bitrate=N/A speed=3.62x    frame=17389 fps= 87 q=-0.0 size=N/A time=00:12:05.26 bitrate=N/A speed=3.62x    frame=17432 fps= 87 q=-0.0 size=N/A time=00:12:07.05 bitrate=N/A speed=3.62x    frame=17480 fps= 87 q=-0.0 size=N/A time=00:12:09.06 bitrate=N/A speed=3.62x    frame=17525 fps= 87 q=-0.0 size=N/A time=00:12:10.93 bitrate=N/A speed=3.62x    frame=17570 fps= 87 q=-0.0 size=N/A time=00:12:12.81 bitrate=N/A speed=3.62x    frame=17614 fps= 87 q=-0.0 size=N/A time=00:12:14.65 bitrate=N/A speed=3.62x    frame=17658 fps= 87 q=-0.0 size=N/A time=00:12:16.48 bitrate=N/A speed=3.62x    frame=17702 fps= 87 q=-0.0 size=N/A time=00:12:18.32 bitrate=N/A speed=3.62x    frame=17747 fps= 87 q=-0.0 size=N/A time=00:12:20.19 bitrate=N/A speed=3.62x    frame=17793 fps= 87 q=-0.0 size=N/A time=00:12:22.11 bitrate=N/A speed=3.62x    frame=17839 fps= 87 q=-0.0 size=N/A time=00:12:24.03 bitrate=N/A speed=3.62x    frame=17882 fps= 87 q=-0.0 size=N/A time=00:12:25.82 bitrate=N/A speed=3.62x    frame=17928 fps= 87 q=-0.0 size=N/A time=00:12:27.74 bitrate=N/A speed=3.62x    frame=17973 fps= 87 q=-0.0 size=N/A time=00:12:29.62 bitrate=N/A speed=3.62x    frame=18017 fps= 87 q=-0.0 size=N/A time=00:12:31.45 bitrate=N/A speed=3.62x    frame=18061 fps= 87 q=-0.0 size=N/A time=00:12:33.29 bitrate=N/A speed=3.62x    frame=18104 fps= 87 q=-0.0 size=N/A time=00:12:35.08 bitrate=N/A speed=3.62x    frame=18149 fps= 87 q=-0.0 size=N/A time=00:12:36.96 bitrate=N/A speed=3.62x    frame=18195 fps= 87 q=-0.0 size=N/A time=00:12:38.88 bitrate=N/A speed=3.62x    frame=18238 fps= 87 q=-0.0 size=N/A time=00:12:40.67 bitrate=N/A speed=3.62x    frame=18282 fps= 87 q=-0.0 size=N/A time=00:12:42.51 bitrate=N/A speed=3.62x    frame=18325 fps= 87 q=-0.0 size=N/A time=00:12:44.30 bitrate=N/A speed=3.62x    frame=18368 fps= 87 q=-0.0 size=N/A time=00:12:46.09 bitrate=N/A speed=3.62x    frame=18412 fps= 87 q=-0.0 size=N/A time=00:12:47.93 bitrate=N/A speed=3.62x    frame=18458 fps= 87 q=-0.0 size=N/A time=00:12:49.85 bitrate=N/A speed=3.62x    frame=18501 fps= 87 q=-0.0 size=N/A time=00:12:51.64 bitrate=N/A speed=3.62x    frame=18548 fps= 87 q=-0.0 size=N/A time=00:12:53.60 bitrate=N/A speed=3.62x    frame=18590 fps= 87 q=-0.0 size=N/A time=00:12:55.35 bitrate=N/A speed=3.62x    frame=18635 fps= 87 q=-0.0 size=N/A time=00:12:57.23 bitrate=N/A speed=3.62x    frame=18678 fps= 87 q=-0.0 size=N/A time=00:12:59.02 bitrate=N/A speed=3.62x    frame=18723 fps= 87 q=-0.0 size=N/A time=00:13:00.90 bitrate=N/A speed=3.62x    frame=18766 fps= 87 q=-0.0 size=N/A time=00:13:02.69 bitrate=N/A speed=3.62x    frame=18811 fps= 87 q=-0.0 size=N/A time=00:13:04.57 bitrate=N/A speed=3.62x    frame=18855 fps= 87 q=-0.0 size=N/A time=00:13:06.41 bitrate=N/A speed=3.62x    frame=18900 fps= 87 q=-0.0 size=N/A time=00:13:08.28 bitrate=N/A speed=3.62x    frame=18944 fps= 87 q=-0.0 size=N/A time=00:13:10.12 bitrate=N/A speed=3.62x    frame=18990 fps= 87 q=-0.0 size=N/A time=00:13:12.04 bitrate=N/A speed=3.62x    frame=19035 fps= 87 q=-0.0 size=N/A time=00:13:13.91 bitrate=N/A speed=3.62x    frame=19079 fps= 87 q=-0.0 size=N/A time=00:13:15.75 bitrate=N/A speed=3.62x    frame=19124 fps= 87 q=-0.0 size=N/A time=00:13:17.63 bitrate=N/A speed=3.62x    frame=19171 fps= 87 q=-0.0 size=N/A time=00:13:19.59 bitrate=N/A speed=3.62x    frame=19215 fps= 87 q=-0.0 size=N/A time=00:13:21.42 bitrate=N/A speed=3.62x    frame=19262 fps= 87 q=-0.0 size=N/A time=00:13:23.38 bitrate=N/A speed=3.62x    frame=19305 fps= 87 q=-0.0 size=N/A time=00:13:25.17 bitrate=N/A speed=3.62x    frame=19351 fps= 87 q=-0.0 size=N/A time=00:13:27.09 bitrate=N/A speed=3.62x    frame=19396 fps= 87 q=-0.0 size=N/A time=00:13:28.97 bitrate=N/A speed=3.62x    frame=19443 fps= 87 q=-0.0 size=N/A time=00:13:30.93 bitrate=N/A speed=3.62x    frame=19487 fps= 87 q=-0.0 size=N/A time=00:13:32.77 bitrate=N/A speed=3.62x    frame=19530 fps= 87 q=-0.0 size=N/A time=00:13:34.56 bitrate=N/A speed=3.62x    frame=19574 fps= 87 q=-0.0 size=N/A time=00:13:36.39 bitrate=N/A speed=3.62x    frame=19619 fps= 87 q=-0.0 size=N/A time=00:13:38.27 bitrate=N/A speed=3.62x    frame=19663 fps= 87 q=-0.0 size=N/A time=00:13:40.11 bitrate=N/A speed=3.62x    frame=19707 fps= 87 q=-0.0 size=N/A time=00:13:41.94 bitrate=N/A speed=3.62x    frame=19751 fps= 87 q=-0.0 size=N/A time=00:13:43.78 bitrate=N/A speed=3.62x    frame=19797 fps= 87 q=-0.0 size=N/A time=00:13:45.69 bitrate=N/A speed=3.62x    frame=19842 fps= 87 q=-0.0 size=N/A time=00:13:47.57 bitrate=N/A speed=3.62x    frame=19887 fps= 87 q=-0.0 size=N/A time=00:13:49.45 bitrate=N/A speed=3.62x    frame=19931 fps= 87 q=-0.0 size=N/A time=00:13:51.28 bitrate=N/A speed=3.62x    frame=19975 fps= 87 q=-0.0 size=N/A time=00:13:53.12 bitrate=N/A speed=3.62x    frame=20019 fps= 87 q=-0.0 size=N/A time=00:13:54.95 bitrate=N/A speed=3.62x    frame=20064 fps= 87 q=-0.0 size=N/A time=00:13:56.83 bitrate=N/A speed=3.62x    frame=20107 fps= 87 q=-0.0 size=N/A time=00:13:58.62 bitrate=N/A speed=3.62x    frame=20149 fps= 87 q=-0.0 size=N/A time=00:14:00.38 bitrate=N/A speed=3.62x    frame=20194 fps= 87 q=-0.0 size=N/A time=00:14:02.25 bitrate=N/A speed=3.62x    frame=20238 fps= 87 q=-0.0 size=N/A time=00:14:04.09 bitrate=N/A speed=3.62x    frame=20283 fps= 87 q=-0.0 size=N/A time=00:14:05.97 bitrate=N/A speed=3.62x    frame=20330 fps= 87 q=-0.0 size=N/A time=00:14:07.93 bitrate=N/A speed=3.62x    frame=20373 fps= 87 q=-0.0 size=N/A time=00:14:09.72 bitrate=N/A speed=3.62x    frame=20420 fps= 87 q=-0.0 size=N/A time=00:14:11.68 bitrate=N/A speed=3.62x    frame=20466 fps= 87 q=-0.0 size=N/A time=00:14:13.60 bitrate=N/A speed=3.62x    frame=20511 fps= 87 q=-0.0 size=N/A time=00:14:15.47 bitrate=N/A speed=3.62x    frame=20555 fps= 87 q=-0.0 size=N/A time=00:14:17.31 bitrate=N/A speed=3.62x    frame=20598 fps= 87 q=-0.0 size=N/A time=00:14:19.10 bitrate=N/A speed=3.62x    frame=20642 fps= 87 q=-0.0 size=N/A time=00:14:20.94 bitrate=N/A speed=3.62x    frame=20688 fps= 87 q=-0.0 size=N/A time=00:14:22.86 bitrate=N/A speed=3.62x    frame=20732 fps= 87 q=-0.0 size=N/A time=00:14:24.69 bitrate=N/A speed=3.62x    frame=20774 fps= 87 q=-0.0 size=N/A time=00:14:26.44 bitrate=N/A speed=3.62x    frame=20816 fps= 87 q=-0.0 size=N/A time=00:14:28.20 bitrate=N/A speed=3.62x    frame=20861 fps= 87 q=-0.0 size=N/A time=00:14:30.07 bitrate=N/A speed=3.62x    frame=20904 fps= 87 q=-0.0 size=N/A time=00:14:31.87 bitrate=N/A speed=3.62x    frame=20949 fps= 87 q=-0.0 size=N/A time=00:14:33.74 bitrate=N/A speed=3.62x    frame=20993 fps= 87 q=-0.0 size=N/A time=00:14:35.58 bitrate=N/A speed=3.62x    frame=21036 fps= 87 q=-0.0 size=N/A time=00:14:37.37 bitrate=N/A speed=3.62x    frame=21078 fps= 87 q=-0.0 size=N/A time=00:14:39.12 bitrate=N/A speed=3.62x    frame=21122 fps= 87 q=-0.0 size=N/A time=00:14:40.96 bitrate=N/A speed=3.62x    frame=21165 fps= 87 q=-0.0 size=N/A time=00:14:42.75 bitrate=N/A speed=3.62x    frame=21208 fps= 87 q=-0.0 size=N/A time=00:14:44.55 bitrate=N/A speed=3.62x    frame=21252 fps= 87 q=-0.0 size=N/A time=00:14:46.38 bitrate=N/A speed=3.62x    frame=21296 fps= 87 q=-0.0 size=N/A time=00:14:48.22 bitrate=N/A speed=3.62x    frame=21341 fps= 87 q=-0.0 size=N/A time=00:14:50.09 bitrate=N/A speed=3.62x    frame=21384 fps= 87 q=-0.0 size=N/A time=00:14:51.89 bitrate=N/A speed=3.62x    frame=21431 fps= 87 q=-0.0 size=N/A time=00:14:53.85 bitrate=N/A speed=3.62x    frame=21473 fps= 87 q=-0.0 size=N/A time=00:14:55.60 bitrate=N/A speed=3.62x    frame=21516 fps= 87 q=-0.0 size=N/A time=00:14:57.39 bitrate=N/A speed=3.62x    frame=21559 fps= 87 q=-0.0 size=N/A time=00:14:59.18 bitrate=N/A speed=3.62x    frame=21604 fps= 87 q=-0.0 size=N/A time=00:15:01.06 bitrate=N/A speed=3.62x    frame=21648 fps= 87 q=-0.0 size=N/A time=00:15:02.90 bitrate=N/A speed=3.62x    frame=21694 fps= 87 q=-0.0 size=N/A time=00:15:04.82 bitrate=N/A speed=3.62x    frame=21737 fps= 87 q=-0.0 size=N/A time=00:15:06.61 bitrate=N/A speed=3.62x    frame=21780 fps= 87 q=-0.0 size=N/A time=00:15:08.40 bitrate=N/A speed=3.62x    frame=21824 fps= 87 q=-0.0 size=N/A time=00:15:10.24 bitrate=N/A speed=3.62x    frame=21868 fps= 87 q=-0.0 size=N/A time=00:15:12.07 bitrate=N/A speed=3.62x    frame=21912 fps= 87 q=-0.0 size=N/A time=00:15:13.91 bitrate=N/A speed=3.62x    frame=21955 fps= 87 q=-0.0 size=N/A time=00:15:15.70 bitrate=N/A speed=3.62x    frame=21998 fps= 87 q=-0.0 size=N/A time=00:15:17.49 bitrate=N/A speed=3.61x    frame=22044 fps= 87 q=-0.0 size=N/A time=00:15:19.41 bitrate=N/A speed=3.62x    frame=22091 fps= 87 q=-0.0 size=N/A time=00:15:21.37 bitrate=N/A speed=3.62x    frame=22135 fps= 87 q=-0.0 size=N/A time=00:15:23.21 bitrate=N/A speed=3.62x    frame=22177 fps= 87 q=-0.0 size=N/A time=00:15:24.96 bitrate=N/A speed=3.61x    frame=22221 fps= 87 q=-0.0 size=N/A time=00:15:26.80 bitrate=N/A speed=3.61x    frame=22265 fps= 87 q=-0.0 size=N/A time=00:15:28.63 bitrate=N/A speed=3.61x    frame=22309 fps= 87 q=-0.0 size=N/A time=00:15:30.47 bitrate=N/A speed=3.61x    frame=22353 fps= 87 q=-0.0 size=N/A time=00:15:32.30 bitrate=N/A speed=3.61x    frame=22398 fps= 87 q=-0.0 size=N/A time=00:15:34.18 bitrate=N/A speed=3.61x    frame=22446 fps= 87 q=-0.0 size=N/A time=00:15:36.18 bitrate=N/A speed=3.61x    frame=22490 fps= 87 q=-0.0 size=N/A time=00:15:38.02 bitrate=N/A speed=3.61x    frame=22535 fps= 87 q=-0.0 size=N/A time=00:15:39.89 bitrate=N/A speed=3.61x    frame=22579 fps= 87 q=-0.0 size=N/A time=00:15:41.73 bitrate=N/A speed=3.61x    frame=22624 fps= 87 q=-0.0 size=N/A time=00:15:43.60 bitrate=N/A speed=3.61x    frame=22670 fps= 87 q=-0.0 size=N/A time=00:15:45.52 bitrate=N/A speed=3.61x    frame=22714 fps= 87 q=-0.0 size=N/A time=00:15:47.36 bitrate=N/A speed=3.61x    frame=22759 fps= 87 q=-0.0 size=N/A time=00:15:49.23 bitrate=N/A speed=3.61x    frame=22803 fps= 87 q=-0.0 size=N/A time=00:15:51.07 bitrate=N/A speed=3.61x    frame=22844 fps= 87 q=-0.0 size=N/A time=00:15:52.78 bitrate=N/A speed=3.61x    frame=22889 fps= 87 q=-0.0 size=N/A time=00:15:54.66 bitrate=N/A speed=3.61x    frame=22935 fps= 87 q=-0.0 size=N/A time=00:15:56.58 bitrate=N/A speed=3.61x    frame=22978 fps= 87 q=-0.0 size=N/A time=00:15:58.37 bitrate=N/A speed=3.61x    frame=23021 fps= 87 q=-0.0 size=N/A time=00:16:00.16 bitrate=N/A speed=3.61x    frame=23064 fps= 87 q=-0.0 size=N/A time=00:16:01.96 bitrate=N/A speed=3.61x    frame=23107 fps= 87 q=-0.0 size=N/A time=00:16:03.75 bitrate=N/A speed=3.61x    frame=23151 fps= 87 q=-0.0 size=N/A time=00:16:05.58 bitrate=N/A speed=3.61x    frame=23197 fps= 87 q=-0.0 size=N/A time=00:16:07.50 bitrate=N/A speed=3.61x    frame=23239 fps= 87 q=-0.0 size=N/A time=00:16:09.25 bitrate=N/A speed=3.61x    frame=23284 fps= 87 q=-0.0 size=N/A time=00:16:11.13 bitrate=N/A speed=3.61x    frame=23329 fps= 87 q=-0.0 size=N/A time=00:16:13.01 bitrate=N/A speed=3.61x    frame=23373 fps= 87 q=-0.0 size=N/A time=00:16:14.84 bitrate=N/A speed=3.61x    frame=23417 fps= 87 q=-0.0 size=N/A time=00:16:16.68 bitrate=N/A speed=3.61x    frame=23462 fps= 87 q=-0.0 size=N/A time=00:16:18.56 bitrate=N/A speed=3.61x    frame=23508 fps= 87 q=-0.0 size=N/A time=00:16:20.47 bitrate=N/A speed=3.61x    frame=23554 fps= 87 q=-0.0 size=N/A time=00:16:22.39 bitrate=N/A speed=3.61x    frame=23597 fps= 87 q=-0.0 size=N/A time=00:16:24.19 bitrate=N/A speed=3.61x    frame=23642 fps= 87 q=-0.0 size=N/A time=00:16:26.06 bitrate=N/A speed=3.61x    frame=23686 fps= 87 q=-0.0 size=N/A time=00:16:27.90 bitrate=N/A speed=3.61x    frame=23732 fps= 87 q=-0.0 size=N/A time=00:16:29.82 bitrate=N/A speed=3.61x    frame=23773 fps= 87 q=-0.0 size=N/A time=00:16:31.53 bitrate=N/A speed=3.61x    frame=23819 fps= 87 q=-0.0 size=N/A time=00:16:33.45 bitrate=N/A speed=3.61x    frame=23863 fps= 87 q=-0.0 size=N/A time=00:16:35.28 bitrate=N/A speed=3.61x    frame=23910 fps= 87 q=-0.0 size=N/A time=00:16:37.24 bitrate=N/A speed=3.61x    frame=23956 fps= 87 q=-0.0 size=N/A time=00:16:39.16 bitrate=N/A speed=3.61x    frame=24000 fps= 87 q=-0.0 size=N/A time=00:16:41.00 bitrate=N/A speed=3.61x    frame=24041 fps= 87 q=-0.0 size=N/A time=00:16:42.71 bitrate=N/A speed=3.61x    frame=24089 fps= 87 q=-0.0 size=N/A time=00:16:44.71 bitrate=N/A speed=3.61x    frame=24135 fps= 87 q=-0.0 size=N/A time=00:16:46.63 bitrate=N/A speed=3.61x    frame=24178 fps= 87 q=-0.0 size=N/A time=00:16:48.42 bitrate=N/A speed=3.61x    frame=24225 fps= 87 q=-0.0 size=N/A time=00:16:50.38 bitrate=N/A speed=3.61x    frame=24267 fps= 87 q=-0.0 size=N/A time=00:16:52.13 bitrate=N/A speed=3.61x    frame=24311 fps= 87 q=-0.0 size=N/A time=00:16:53.97 bitrate=N/A speed=3.61x    frame=24358 fps= 87 q=-0.0 size=N/A time=00:16:55.93 bitrate=N/A speed=3.61x    frame=24401 fps= 87 q=-0.0 size=N/A time=00:16:57.72 bitrate=N/A speed=3.61x    frame=24446 fps= 87 q=-0.0 size=N/A time=00:16:59.60 bitrate=N/A speed=3.61x    frame=24491 fps= 87 q=-0.0 size=N/A time=00:17:01.47 bitrate=N/A speed=3.61x    frame=24535 fps= 87 q=-0.0 size=N/A time=00:17:03.31 bitrate=N/A speed=3.61x    frame=24581 fps= 87 q=-0.0 size=N/A time=00:17:05.23 bitrate=N/A speed=3.61x    frame=24624 fps= 87 q=-0.0 size=N/A time=00:17:07.02 bitrate=N/A speed=3.61x    frame=24669 fps= 87 q=-0.0 size=N/A time=00:17:08.90 bitrate=N/A speed=3.61x    frame=24714 fps= 87 q=-0.0 size=N/A time=00:17:10.77 bitrate=N/A speed=3.61x    frame=24757 fps= 87 q=-0.0 size=N/A time=00:17:12.57 bitrate=N/A speed=3.61x    frame=24802 fps= 87 q=-0.0 size=N/A time=00:17:14.45 bitrate=N/A speed=3.61x    frame=24848 fps= 87 q=-0.0 size=N/A time=00:17:16.36 bitrate=N/A speed=3.61x    frame=24891 fps= 87 q=-0.0 size=N/A time=00:17:18.16 bitrate=N/A speed=3.61x    frame=24938 fps= 87 q=-0.0 size=N/A time=00:17:20.12 bitrate=N/A speed=3.61x    frame=24984 fps= 87 q=-0.0 size=N/A time=00:17:22.04 bitrate=N/A speed=3.61x    frame=25027 fps= 87 q=-0.0 size=N/A time=00:17:23.83 bitrate=N/A speed=3.61x    frame=25072 fps= 87 q=-0.0 size=N/A time=00:17:25.71 bitrate=N/A speed=3.61x    frame=25118 fps= 87 q=-0.0 size=N/A time=00:17:27.62 bitrate=N/A speed=3.61x    frame=25163 fps= 87 q=-0.0 size=N/A time=00:17:29.50 bitrate=N/A speed=3.61x    frame=25206 fps= 87 q=-0.0 size=N/A time=00:17:31.30 bitrate=N/A speed=3.61x    frame=25252 fps= 87 q=-0.0 size=N/A time=00:17:33.21 bitrate=N/A speed=3.61x    frame=25297 fps= 87 q=-0.0 size=N/A time=00:17:35.09 bitrate=N/A speed=3.61x    frame=25340 fps= 87 q=-0.0 size=N/A time=00:17:36.88 bitrate=N/A speed=3.61x    frame=25386 fps= 87 q=-0.0 size=N/A time=00:17:38.80 bitrate=N/A speed=3.61x    frame=25429 fps= 87 q=-0.0 size=N/A time=00:17:40.60 bitrate=N/A speed=3.61x    frame=25474 fps= 87 q=-0.0 size=N/A time=00:17:42.47 bitrate=N/A speed=3.61x    frame=25516 fps= 87 q=-0.0 size=N/A time=00:17:44.22 bitrate=N/A speed=3.61x    frame=25558 fps= 87 q=-0.0 size=N/A time=00:17:45.98 bitrate=N/A speed=3.61x    frame=25605 fps= 87 q=-0.0 size=N/A time=00:17:47.94 bitrate=N/A speed=3.61x    frame=25647 fps= 87 q=-0.0 size=N/A time=00:17:49.69 bitrate=N/A speed=3.61x    frame=25691 fps= 87 q=-0.0 size=N/A time=00:17:51.52 bitrate=N/A speed=3.61x    frame=25736 fps= 87 q=-0.0 size=N/A time=00:17:53.40 bitrate=N/A speed=3.61x    frame=25781 fps= 87 q=-0.0 size=N/A time=00:17:55.28 bitrate=N/A speed=3.61x    frame=25824 fps= 87 q=-0.0 size=N/A time=00:17:57.07 bitrate=N/A speed=3.61x    frame=25868 fps= 87 q=-0.0 size=N/A time=00:17:58.91 bitrate=N/A speed=3.61x    frame=25912 fps= 87 q=-0.0 size=N/A time=00:18:00.74 bitrate=N/A speed=3.61x    frame=25957 fps= 87 q=-0.0 size=N/A time=00:18:02.62 bitrate=N/A speed=3.61x    frame=26002 fps= 87 q=-0.0 size=N/A time=00:18:04.50 bitrate=N/A speed=3.61x    frame=26046 fps= 87 q=-0.0 size=N/A time=00:18:06.33 bitrate=N/A speed=3.61x    frame=26091 fps= 87 q=-0.0 size=N/A time=00:18:08.21 bitrate=N/A speed=3.61x    frame=26134 fps= 87 q=-0.0 size=N/A time=00:18:10.00 bitrate=N/A speed=3.61x    frame=26177 fps= 87 q=-0.0 size=N/A time=00:18:11.79 bitrate=N/A speed=3.61x    frame=26222 fps= 87 q=-0.0 size=N/A time=00:18:13.67 bitrate=N/A speed=3.61x    frame=26266 fps= 87 q=-0.0 size=N/A time=00:18:15.51 bitrate=N/A speed=3.61x    frame=26311 fps= 87 q=-0.0 size=N/A time=00:18:17.38 bitrate=N/A speed=3.61x    frame=26355 fps= 87 q=-0.0 size=N/A time=00:18:19.22 bitrate=N/A speed=3.61x    frame=26400 fps= 87 q=-0.0 size=N/A time=00:18:21.10 bitrate=N/A speed=3.61x    frame=26444 fps= 87 q=-0.0 size=N/A time=00:18:22.93 bitrate=N/A speed=3.61x    frame=26489 fps= 87 q=-0.0 size=N/A time=00:18:24.81 bitrate=N/A speed=3.61x    frame=26533 fps= 87 q=-0.0 size=N/A time=00:18:26.64 bitrate=N/A speed=3.61x    frame=26576 fps= 87 q=-0.0 size=N/A time=00:18:28.44 bitrate=N/A speed=3.61x    frame=26619 fps= 87 q=-0.0 size=N/A time=00:18:30.23 bitrate=N/A speed=3.61x    frame=26663 fps= 87 q=-0.0 size=N/A time=00:18:32.06 bitrate=N/A speed=3.61x    frame=26706 fps= 87 q=-0.0 size=N/A time=00:18:33.86 bitrate=N/A speed=3.61x    frame=26751 fps= 87 q=-0.0 size=N/A time=00:18:35.73 bitrate=N/A speed=3.61x    frame=26794 fps= 87 q=-0.0 size=N/A time=00:18:37.53 bitrate=N/A speed=3.61x    frame=26838 fps= 87 q=-0.0 size=N/A time=00:18:39.36 bitrate=N/A speed=3.61x    frame=26881 fps= 87 q=-0.0 size=N/A time=00:18:41.16 bitrate=N/A speed=3.61x    frame=26928 fps= 87 q=-0.0 size=N/A time=00:18:43.12 bitrate=N/A speed=3.61x    frame=26972 fps= 87 q=-0.0 size=N/A time=00:18:44.95 bitrate=N/A speed=3.61x    frame=27017 fps= 87 q=-0.0 size=N/A time=00:18:46.83 bitrate=N/A speed=3.61x    frame=27058 fps= 87 q=-0.0 size=N/A time=00:18:48.54 bitrate=N/A speed=3.61x    frame=27102 fps= 87 q=-0.0 size=N/A time=00:18:50.37 bitrate=N/A speed=3.61x    frame=27147 fps= 87 q=-0.0 size=N/A time=00:18:52.25 bitrate=N/A speed=3.61x    frame=27193 fps= 87 q=-0.0 size=N/A time=00:18:54.17 bitrate=N/A speed=3.61x    frame=27239 fps= 87 q=-0.0 size=N/A time=00:18:56.09 bitrate=N/A speed=3.61x    frame=27285 fps= 87 q=-0.0 size=N/A time=00:18:58.01 bitrate=N/A speed=3.61x    frame=27329 fps= 87 q=-0.0 size=N/A time=00:18:59.84 bitrate=N/A speed=3.61x    frame=27373 fps= 87 q=-0.0 size=N/A time=00:19:01.68 bitrate=N/A speed=3.61x    frame=27417 fps= 87 q=-0.0 size=N/A time=00:19:03.51 bitrate=N/A speed=3.61x    frame=27457 fps= 87 q=-0.0 size=N/A time=00:19:05.18 bitrate=N/A speed=3.61x    frame=27500 fps= 87 q=-0.0 size=N/A time=00:19:06.97 bitrate=N/A speed=3.61x    frame=27544 fps= 87 q=-0.0 size=N/A time=00:19:08.81 bitrate=N/A speed=3.61x    frame=27591 fps= 87 q=-0.0 size=N/A time=00:19:10.77 bitrate=N/A speed=3.61x    frame=27633 fps= 87 q=-0.0 size=N/A time=00:19:12.52 bitrate=N/A speed=3.61x    frame=27677 fps= 87 q=-0.0 size=N/A time=00:19:14.36 bitrate=N/A speed=3.61x    frame=27723 fps= 87 q=-0.0 size=N/A time=00:19:16.28 bitrate=N/A speed=3.61x    frame=27768 fps= 87 q=-0.0 size=N/A time=00:19:18.15 bitrate=N/A speed=3.61x    frame=27812 fps= 87 q=-0.0 size=N/A time=00:19:19.99 bitrate=N/A speed=3.61x    frame=27856 fps= 87 q=-0.0 size=N/A time=00:19:21.82 bitrate=N/A speed=3.61x    frame=27902 fps= 87 q=-0.0 size=N/A time=00:19:23.74 bitrate=N/A speed=3.61x    frame=27947 fps= 87 q=-0.0 size=N/A time=00:19:25.62 bitrate=N/A speed=3.61x    frame=27990 fps= 87 q=-0.0 size=N/A time=00:19:27.41 bitrate=N/A speed=3.61x    frame=28034 fps= 87 q=-0.0 size=N/A time=00:19:29.25 bitrate=N/A speed=3.61x    frame=28077 fps= 87 q=-0.0 size=N/A time=00:19:31.04 bitrate=N/A speed=3.61x    frame=28121 fps= 87 q=-0.0 size=N/A time=00:19:32.88 bitrate=N/A speed=3.61x    frame=28167 fps= 87 q=-0.0 size=N/A time=00:19:34.79 bitrate=N/A speed=3.61x    frame=28210 fps= 87 q=-0.0 size=N/A time=00:19:36.59 bitrate=N/A speed=3.61x    frame=28255 fps= 87 q=-0.0 size=N/A time=00:19:38.46 bitrate=N/A speed=3.61x    frame=28302 fps= 87 q=-0.0 size=N/A time=00:19:40.42 bitrate=N/A speed=3.61x    frame=28345 fps= 87 q=-0.0 size=N/A time=00:19:42.22 bitrate=N/A speed=3.61x    frame=28389 fps= 87 q=-0.0 size=N/A time=00:19:44.05 bitrate=N/A speed=3.61x    frame=28436 fps= 87 q=-0.0 size=N/A time=00:19:46.01 bitrate=N/A speed=3.61x    frame=28479 fps= 87 q=-0.0 size=N/A time=00:19:47.81 bitrate=N/A speed=3.61x    frame=28521 fps= 87 q=-0.0 size=N/A time=00:19:49.56 bitrate=N/A speed=3.61x    frame=28566 fps= 87 q=-0.0 size=N/A time=00:19:51.44 bitrate=N/A speed=3.61x    frame=28613 fps= 87 q=-0.0 size=N/A time=00:19:53.40 bitrate=N/A speed=3.61x    frame=28656 fps= 87 q=-0.0 size=N/A time=00:19:55.19 bitrate=N/A speed=3.61x    frame=28701 fps= 87 q=-0.0 size=N/A time=00:19:57.07 bitrate=N/A speed=3.61x    frame=28745 fps= 87 q=-0.0 size=N/A time=00:19:58.90 bitrate=N/A speed=3.61x    frame=28784 fps= 87 q=-0.0 size=N/A time=00:20:00.53 bitrate=N/A speed=3.61x    frame=28825 fps= 86 q=-0.0 size=N/A time=00:20:02.24 bitrate=N/A speed=3.61x    frame=28867 fps= 86 q=-0.0 size=N/A time=00:20:03.99 bitrate=N/A speed=3.61x    frame=28908 fps= 86 q=-0.0 size=N/A time=00:20:05.70 bitrate=N/A speed=3.61x    frame=28947 fps= 86 q=-0.0 size=N/A time=00:20:07.33 bitrate=N/A speed=3.61x    frame=28992 fps= 86 q=-0.0 size=N/A time=00:20:09.20 bitrate=N/A speed=3.61x    frame=29033 fps= 86 q=-0.0 size=N/A time=00:20:10.91 bitrate=N/A speed=3.61x    frame=29074 fps= 86 q=-0.0 size=N/A time=00:20:12.62 bitrate=N/A speed=3.61x    frame=29116 fps= 86 q=-0.0 size=N/A time=00:20:14.37 bitrate=N/A speed= 3.6x    frame=29160 fps= 86 q=-0.0 size=N/A time=00:20:16.21 bitrate=N/A speed= 3.6x    frame=29204 fps= 86 q=-0.0 size=N/A time=00:20:18.05 bitrate=N/A speed= 3.6x    frame=29250 fps= 86 q=-0.0 size=N/A time=00:20:19.96 bitrate=N/A speed= 3.6x    frame=29290 fps= 86 q=-0.0 size=N/A time=00:20:21.63 bitrate=N/A speed= 3.6x    frame=29334 fps= 86 q=-0.0 size=N/A time=00:20:23.47 bitrate=N/A speed= 3.6x    frame=29379 fps= 86 q=-0.0 size=N/A time=00:20:25.34 bitrate=N/A speed= 3.6x    frame=29423 fps= 86 q=-0.0 size=N/A time=00:20:27.18 bitrate=N/A speed= 3.6x    frame=29469 fps= 86 q=-0.0 size=N/A time=00:20:29.10 bitrate=N/A speed= 3.6x    frame=29511 fps= 86 q=-0.0 size=N/A time=00:20:30.85 bitrate=N/A speed= 3.6x    frame=29557 fps= 86 q=-0.0 size=N/A time=00:20:32.77 bitrate=N/A speed= 3.6x    frame=29602 fps= 86 q=-0.0 size=N/A time=00:20:34.65 bitrate=N/A speed= 3.6x    frame=29645 fps= 86 q=-0.0 size=N/A time=00:20:36.44 bitrate=N/A speed= 3.6x    frame=29691 fps= 86 q=-0.0 size=N/A time=00:20:38.36 bitrate=N/A speed= 3.6x    frame=29736 fps= 86 q=-0.0 size=N/A time=00:20:40.23 bitrate=N/A speed= 3.6x    frame=29781 fps= 86 q=-0.0 size=N/A time=00:20:42.11 bitrate=N/A speed= 3.6x    frame=29824 fps= 86 q=-0.0 size=N/A time=00:20:43.90 bitrate=N/A speed= 3.6x    frame=29867 fps= 86 q=-0.0 size=N/A time=00:20:45.70 bitrate=N/A speed= 3.6x    frame=29910 fps= 86 q=-0.0 size=N/A time=00:20:47.49 bitrate=N/A speed= 3.6x    frame=29953 fps= 86 q=-0.0 size=N/A time=00:20:49.28 bitrate=N/A speed= 3.6x    frame=29993 fps= 86 q=-0.0 size=N/A time=00:20:50.95 bitrate=N/A speed= 3.6x    frame=30035 fps= 86 q=-0.0 size=N/A time=00:20:52.70 bitrate=N/A speed= 3.6x    frame=30078 fps= 86 q=-0.0 size=N/A time=00:20:54.50 bitrate=N/A speed= 3.6x    frame=30116 fps= 86 q=-0.0 size=N/A time=00:20:56.08 bitrate=N/A speed= 3.6x    frame=30153 fps= 86 q=-0.0 size=N/A time=00:20:57.63 bitrate=N/A speed= 3.6x    frame=30196 fps= 86 q=-0.0 size=N/A time=00:20:59.42 bitrate=N/A speed= 3.6x    frame=30238 fps= 86 q=-0.0 size=N/A time=00:21:01.17 bitrate=N/A speed= 3.6x    frame=30281 fps= 86 q=-0.0 size=N/A time=00:21:02.97 bitrate=N/A speed= 3.6x    frame=30325 fps= 86 q=-0.0 size=N/A time=00:21:04.80 bitrate=N/A speed= 3.6x    frame=30371 fps= 86 q=-0.0 size=N/A time=00:21:06.72 bitrate=N/A speed= 3.6x    frame=30413 fps= 86 q=-0.0 size=N/A time=00:21:08.47 bitrate=N/A speed= 3.6x    frame=30458 fps= 86 q=-0.0 size=N/A time=00:21:10.35 bitrate=N/A speed= 3.6x    frame=30503 fps= 86 q=-0.0 size=N/A time=00:21:12.22 bitrate=N/A speed= 3.6x    frame=30545 fps= 86 q=-0.0 size=N/A time=00:21:13.98 bitrate=N/A speed= 3.6x    frame=30589 fps= 86 q=-0.0 size=N/A time=00:21:15.81 bitrate=N/A speed= 3.6x    frame=30632 fps= 86 q=-0.0 size=N/A time=00:21:17.60 bitrate=N/A speed= 3.6x    frame=30676 fps= 86 q=-0.0 size=N/A time=00:21:19.44 bitrate=N/A speed= 3.6x    frame=30721 fps= 86 q=-0.0 size=N/A time=00:21:21.32 bitrate=N/A speed= 3.6x    frame=30762 fps= 86 q=-0.0 size=N/A time=00:21:23.07 bitrate=N/A speed= 3.6x    frame=30807 fps= 86 q=-0.0 size=N/A time=00:21:24.90 bitrate=N/A speed= 3.6x    frame=30850 fps= 86 q=-0.0 size=N/A time=00:21:26.70 bitrate=N/A speed= 3.6x    frame=30892 fps= 86 q=-0.0 size=N/A time=00:21:28.45 bitrate=N/A speed= 3.6x    frame=30934 fps= 86 q=-0.0 size=N/A time=00:21:30.20 bitrate=N/A speed= 3.6x    frame=30978 fps= 86 q=-0.0 size=N/A time=00:21:32.04 bitrate=N/A speed= 3.6x    frame=31022 fps= 86 q=-0.0 size=N/A time=00:21:33.87 bitrate=N/A speed= 3.6x    frame=31065 fps= 86 q=-0.0 size=N/A time=00:21:35.66 bitrate=N/A speed= 3.6x    frame=31109 fps= 86 q=-0.0 size=N/A time=00:21:37.50 bitrate=N/A speed= 3.6x    frame=31153 fps= 86 q=-0.0 size=N/A time=00:21:39.33 bitrate=N/A speed= 3.6x    frame=31198 fps= 86 q=-0.0 size=N/A time=00:21:41.21 bitrate=N/A speed= 3.6x    frame=31243 fps= 86 q=-0.0 size=N/A time=00:21:43.09 bitrate=N/A speed= 3.6x    frame=31286 fps= 86 q=-0.0 size=N/A time=00:21:44.88 bitrate=N/A speed= 3.6x    frame=31329 fps= 86 q=-0.0 size=N/A time=00:21:46.68 bitrate=N/A speed= 3.6x    frame=31371 fps= 86 q=-0.0 size=N/A time=00:21:48.43 bitrate=N/A speed= 3.6x    frame=31414 fps= 86 q=-0.0 size=N/A time=00:21:50.22 bitrate=N/A speed= 3.6x    frame=31458 fps= 86 q=-0.0 size=N/A time=00:21:52.06 bitrate=N/A speed= 3.6x    frame=31504 fps= 86 q=-0.0 size=N/A time=00:21:53.97 bitrate=N/A speed= 3.6x    frame=31546 fps= 86 q=-0.0 size=N/A time=00:21:55.73 bitrate=N/A speed= 3.6x    frame=31589 fps= 86 q=-0.0 size=N/A time=00:21:57.52 bitrate=N/A speed= 3.6x    frame=31633 fps= 86 q=-0.0 size=N/A time=00:21:59.35 bitrate=N/A speed= 3.6x    frame=31676 fps= 86 q=-0.0 size=N/A time=00:22:01.15 bitrate=N/A speed= 3.6x    frame=31720 fps= 86 q=-0.0 size=N/A time=00:22:02.98 bitrate=N/A speed= 3.6x    frame=31764 fps= 86 q=-0.0 size=N/A time=00:22:04.82 bitrate=N/A speed= 3.6x    frame=31807 fps= 86 q=-0.0 size=N/A time=00:22:06.61 bitrate=N/A speed= 3.6x    frame=31851 fps= 86 q=-0.0 size=N/A time=00:22:08.45 bitrate=N/A speed= 3.6x    frame=31895 fps= 86 q=-0.0 size=N/A time=00:22:10.28 bitrate=N/A speed= 3.6x    frame=31939 fps= 86 q=-0.0 size=N/A time=00:22:12.12 bitrate=N/A speed= 3.6x    frame=31983 fps= 86 q=-0.0 size=N/A time=00:22:13.95 bitrate=N/A speed= 3.6x    frame=32028 fps= 86 q=-0.0 size=N/A time=00:22:15.83 bitrate=N/A speed= 3.6x    frame=32073 fps= 86 q=-0.0 size=N/A time=00:22:17.71 bitrate=N/A speed= 3.6x    frame=32118 fps= 86 q=-0.0 size=N/A time=00:22:19.58 bitrate=N/A speed= 3.6x    frame=32160 fps= 86 q=-0.0 size=N/A time=00:22:21.34 bitrate=N/A speed= 3.6x    frame=32204 fps= 86 q=-0.0 size=N/A time=00:22:23.17 bitrate=N/A speed= 3.6x    frame=32248 fps= 86 q=-0.0 size=N/A time=00:22:25.01 bitrate=N/A speed= 3.6x    frame=32296 fps= 86 q=-0.0 size=N/A time=00:22:27.01 bitrate=N/A speed= 3.6x    frame=32341 fps= 86 q=-0.0 size=N/A time=00:22:28.88 bitrate=N/A speed= 3.6x    frame=32384 fps= 86 q=-0.0 size=N/A time=00:22:30.68 bitrate=N/A speed= 3.6x    frame=32425 fps= 86 q=-0.0 size=N/A time=00:22:32.39 bitrate=N/A speed= 3.6x    frame=32465 fps= 86 q=-0.0 size=N/A time=00:22:34.06 bitrate=N/A speed= 3.6x    frame=32506 fps= 86 q=-0.0 size=N/A time=00:22:35.77 bitrate=N/A speed= 3.6x    frame=32546 fps= 86 q=-0.0 size=N/A time=00:22:37.43 bitrate=N/A speed=3.59x    frame=32588 fps= 86 q=-0.0 size=N/A time=00:22:39.19 bitrate=N/A speed=3.59x    frame=32629 fps= 86 q=-0.0 size=N/A time=00:22:40.90 bitrate=N/A speed=3.59x    frame=32672 fps= 86 q=-0.0 size=N/A time=00:22:42.69 bitrate=N/A speed=3.59x    frame=32713 fps= 86 q=-0.0 size=N/A time=00:22:44.40 bitrate=N/A speed=3.59x    frame=32758 fps= 86 q=-0.0 size=N/A time=00:22:46.28 bitrate=N/A speed=3.59x    frame=32802 fps= 86 q=-0.0 size=N/A time=00:22:48.11 bitrate=N/A speed=3.59x    frame=32845 fps= 86 q=-0.0 size=N/A time=00:22:49.91 bitrate=N/A speed=3.59x    frame=32889 fps= 86 q=-0.0 size=N/A time=00:22:51.74 bitrate=N/A speed=3.59x    frame=32933 fps= 86 q=-0.0 size=N/A time=00:22:53.58 bitrate=N/A speed=3.59x    frame=32975 fps= 86 q=-0.0 size=N/A time=00:22:55.33 bitrate=N/A speed=3.59x    frame=33018 fps= 86 q=-0.0 size=N/A time=00:22:57.12 bitrate=N/A speed=3.59x    frame=33060 fps= 86 q=-0.0 size=N/A time=00:22:58.87 bitrate=N/A speed=3.59x    frame=33106 fps= 86 q=-0.0 size=N/A time=00:23:00.79 bitrate=N/A speed=3.59x    frame=33150 fps= 86 q=-0.0 size=N/A time=00:23:02.63 bitrate=N/A speed=3.59x    frame=33191 fps= 86 q=-0.0 size=N/A time=00:23:04.34 bitrate=N/A speed=3.59x    frame=33232 fps= 86 q=-0.0 size=N/A time=00:23:06.05 bitrate=N/A speed=3.59x    frame=33274 fps= 86 q=-0.0 size=N/A time=00:23:07.80 bitrate=N/A speed=3.59x    frame=33316 fps= 86 q=-0.0 size=N/A time=00:23:09.55 bitrate=N/A speed=3.59x    frame=33360 fps= 86 q=-0.0 size=N/A time=00:23:11.39 bitrate=N/A speed=3.59x    frame=33403 fps= 86 q=-0.0 size=N/A time=00:23:13.18 bitrate=N/A speed=3.59x    frame=33447 fps= 86 q=-0.0 size=N/A time=00:23:15.01 bitrate=N/A speed=3.59x    frame=33491 fps= 86 q=-0.0 size=N/A time=00:23:16.85 bitrate=N/A speed=3.59x    frame=33533 fps= 86 q=-0.0 size=N/A time=00:23:18.60 bitrate=N/A speed=3.59x    frame=33577 fps= 86 q=-0.0 size=N/A time=00:23:20.44 bitrate=N/A speed=3.59x    frame=33621 fps= 86 q=-0.0 size=N/A time=00:23:22.27 bitrate=N/A speed=3.59x    frame=33662 fps= 86 q=-0.0 size=N/A time=00:23:23.98 bitrate=N/A speed=3.59x    frame=33704 fps= 86 q=-0.0 size=N/A time=00:23:25.73 bitrate=N/A speed=3.59x    frame=33747 fps= 86 q=-0.0 size=N/A time=00:23:27.53 bitrate=N/A speed=3.59x    frame=33791 fps= 86 q=-0.0 size=N/A time=00:23:29.36 bitrate=N/A speed=3.59x    frame=33833 fps= 86 q=-0.0 size=N/A time=00:23:31.11 bitrate=N/A speed=3.59x    frame=33877 fps= 86 q=-0.0 size=N/A time=00:23:32.95 bitrate=N/A speed=3.59x    frame=33922 fps= 86 q=-0.0 size=N/A time=00:23:34.83 bitrate=N/A speed=3.59x    frame=33963 fps= 86 q=-0.0 size=N/A time=00:23:36.54 bitrate=N/A speed=3.59x    frame=34005 fps= 86 q=-0.0 size=N/A time=00:23:38.29 bitrate=N/A speed=3.59x    frame=34047 fps= 86 q=-0.0 size=N/A time=00:23:40.04 bitrate=N/A speed=3.59x    frame=34092 fps= 86 q=-0.0 size=N/A time=00:23:41.92 bitrate=N/A speed=3.59x    frame=34133 fps= 86 q=-0.0 size=N/A time=00:23:43.63 bitrate=N/A speed=3.59x    frame=34179 fps= 86 q=-0.0 size=N/A time=00:23:45.54 bitrate=N/A speed=3.59x    frame=34220 fps= 86 q=-0.0 size=N/A time=00:23:47.25 bitrate=N/A speed=3.59x    frame=34266 fps= 86 q=-0.0 size=N/A time=00:23:49.17 bitrate=N/A speed=3.59x    frame=34308 fps= 86 q=-0.0 size=N/A time=00:23:50.92 bitrate=N/A speed=3.59x    frame=34351 fps= 86 q=-0.0 size=N/A time=00:23:52.72 bitrate=N/A speed=3.59x    frame=34394 fps= 86 q=-0.0 size=N/A time=00:23:54.51 bitrate=N/A speed=3.59x    frame=34436 fps= 86 q=-0.0 size=N/A time=00:23:56.26 bitrate=N/A speed=3.59x    frame=34478 fps= 86 q=-0.0 size=N/A time=00:23:58.01 bitrate=N/A speed=3.59x    frame=34523 fps= 86 q=-0.0 size=N/A time=00:23:59.89 bitrate=N/A speed=3.59x    frame=34567 fps= 86 q=-0.0 size=N/A time=00:24:01.73 bitrate=N/A speed=3.59x    frame=34611 fps= 86 q=-0.0 size=N/A time=00:24:03.56 bitrate=N/A speed=3.59x    frame=34652 fps= 86 q=-0.0 size=N/A time=00:24:05.27 bitrate=N/A speed=3.59x    frame=34695 fps= 86 q=-0.0 size=N/A time=00:24:07.07 bitrate=N/A speed=3.59x    frame=34740 fps= 86 q=-0.0 size=N/A time=00:24:08.94 bitrate=N/A speed=3.59x    frame=34783 fps= 86 q=-0.0 size=N/A time=00:24:10.74 bitrate=N/A speed=3.59x    frame=34829 fps= 86 q=-0.0 size=N/A time=00:24:12.65 bitrate=N/A speed=3.59x    frame=34872 fps= 86 q=-0.0 size=N/A time=00:24:14.45 bitrate=N/A speed=3.59x    frame=34917 fps= 86 q=-0.0 size=N/A time=00:24:16.32 bitrate=N/A speed=3.59x    [Parsed_libvmaf_10 @ 000001e9a6426200] VMAF score: 95.358657
[out#0/null @ 000001e9a642e040] video:15005KiB audio:273300KiB subtitle:0KiB other streams:0KiB global headers:0KiB muxing overhead: unknown
frame=34921 fps= 86 q=-0.0 Lsize=N/A time=00:24:16.49 bitrate=N/A speed=3.57x    
